<svg width="194" height="50" viewBox="0 0 194 50" fill="none" xmlns="http://www.w3.org/2000/svg">
<path d="M21.418 8.152C25.6113 8.152 28.9167 9.31133 31.334 11.63C33.7513 13.9487 34.96 17.698 34.96 22.878V49H25.118V24.728C25.118 21.7187 24.6 19.474 23.564 17.994C22.528 16.4647 20.9 15.7 18.68 15.7C15.3747 15.7 13.13 16.884 11.946 19.252C10.762 21.5707 10.17 24.95 10.17 29.39V49H0.328V8.892H7.876L9.282 14.146H9.652C10.54 12.7647 11.576 11.63 12.76 10.742C13.944 9.854 15.276 9.21266 16.756 8.818C18.236 8.374 19.79 8.152 21.418 8.152ZM79.9058 28.872C79.9058 32.2267 79.4864 35.1867 78.6478 37.752C77.8091 40.3173 76.5758 42.5127 74.9478 44.338C73.3691 46.114 71.4451 47.4707 69.1758 48.408C66.9064 49.296 64.3658 49.74 61.5538 49.74C58.9391 49.74 56.4971 49.296 54.2278 48.408C52.0078 47.4707 50.0838 46.114 48.4558 44.338C46.8771 42.5127 45.6438 40.3173 44.7558 37.752C43.8678 35.1867 43.4238 32.2267 43.4238 28.872C43.4238 24.432 44.1391 20.6827 45.5698 17.624C47.0498 14.516 49.1711 12.1727 51.9338 10.594C54.6964 8.966 57.9771 8.152 61.7758 8.152C65.3278 8.152 68.4604 8.966 71.1738 10.594C73.8871 12.1727 76.0084 14.516 77.5378 17.624C79.1164 20.6827 79.9058 24.432 79.9058 28.872ZM53.4138 28.872C53.4138 31.684 53.7098 34.1013 54.3018 36.124C54.8938 38.0973 55.7818 39.602 56.9658 40.638C58.1991 41.674 59.7778 42.192 61.7018 42.192C63.6258 42.192 65.1798 41.674 66.3638 40.638C67.5971 39.602 68.4851 38.0973 69.0278 36.124C69.6198 34.1013 69.9158 31.684 69.9158 28.872C69.9158 26.0107 69.6198 23.618 69.0278 21.694C68.4358 19.7207 67.5231 18.2407 66.2898 17.254C65.1058 16.218 63.5518 15.7 61.6278 15.7C58.7171 15.7 56.6204 16.8347 55.3378 19.104C54.0551 21.3733 53.4138 24.6293 53.4138 28.872ZM104.18 42.266C105.265 42.266 106.301 42.1673 107.288 41.97C108.324 41.7233 109.286 41.452 110.174 41.156V48.112C109.138 48.556 107.88 48.926 106.4 49.222C104.92 49.5673 103.267 49.74 101.442 49.74C99.1727 49.74 97.1501 49.37 95.3741 48.63C93.5981 47.8407 92.1921 46.5087 91.1561 44.634C90.1694 42.7593 89.6761 40.1447 89.6761 36.79V15.922H84.6441V11.852L90.2681 8.596L93.2281 0.085999H99.4441V8.892H109.804V15.922H99.4441V36.716C99.4441 38.5907 99.8634 39.9967 100.702 40.934C101.59 41.822 102.749 42.266 104.18 42.266ZM133.529 8.152C138.363 8.152 142.063 9.28666 144.629 11.556C147.194 13.776 148.477 17.2787 148.477 22.064V49H141.595L139.671 43.45H139.375C138.289 44.8807 137.179 46.0893 136.045 47.076C134.91 48.0133 133.603 48.6793 132.123 49.074C130.643 49.518 128.867 49.74 126.795 49.74C124.575 49.74 122.577 49.296 120.801 48.408C119.025 47.52 117.619 46.1633 116.583 44.338C115.547 42.4633 115.029 40.12 115.029 37.308C115.029 33.164 116.459 30.056 119.321 27.984C122.182 25.8627 126.474 24.7033 132.197 24.506L138.635 24.284V22.286C138.635 19.7207 138.092 17.8953 137.007 16.81C135.921 15.7247 134.441 15.182 132.567 15.182C130.791 15.182 128.99 15.478 127.165 16.07C125.389 16.662 123.637 17.3527 121.911 18.142L118.877 11.63C120.899 10.594 123.144 9.75533 125.611 9.114C128.077 8.47266 130.717 8.152 133.529 8.152ZM134.491 30.204C130.988 30.352 128.546 31.0673 127.165 32.35C125.783 33.5833 125.093 35.2607 125.093 37.382C125.093 39.2567 125.561 40.6133 126.499 41.452C127.485 42.2907 128.768 42.71 130.347 42.71C132.665 42.71 134.639 41.9453 136.267 40.416C137.895 38.8373 138.709 36.5187 138.709 33.46V30.056L134.491 30.204ZM179.969 8.152C184.162 8.152 187.467 9.31133 189.885 11.63C192.302 13.9487 193.511 17.698 193.511 22.878V49H183.669V24.728C183.669 21.7187 183.151 19.474 182.115 17.994C181.079 16.4647 179.451 15.7 177.231 15.7C173.925 15.7 171.681 16.884 170.497 19.252C169.313 21.5707 168.721 24.95 168.721 29.39V49H158.879V8.892H166.427L167.833 14.146H168.203C169.091 12.7647 170.127 11.63 171.311 10.742C172.495 9.854 173.827 9.21266 175.307 8.818C176.787 8.374 178.341 8.152 179.969 8.152Z" fill="#E2E2E2"/>
</svg>
