<svg width="69" height="96" viewBox="0 0 69 96" fill="none" xmlns="http://www.w3.org/2000/svg">
<g clip-path="url(#clip0_549_1394)">
<path d="M9.41433e-07 95.3206C-8.13547e-05 95.3476 0.00523261 95.3743 0.0156373 95.3993C0.0260419 95.4243 0.0413345 95.447 0.060642 95.4661C0.0799495 95.4852 0.102889 95.5004 0.12816 95.5109C0.153431 95.5213 0.180537 95.5266 0.207924 95.5267H68.2833C68.3388 95.5267 68.392 95.505 68.4312 95.4664C68.4704 95.4277 68.4925 95.3753 68.4925 95.3206C68.4925 95.266 68.4704 95.2135 68.4312 95.1749C68.392 95.1362 68.3388 95.1145 68.2833 95.1145H0.209168C0.181781 95.1144 0.154641 95.1197 0.129308 95.1299C0.103974 95.1402 0.0809394 95.1552 0.0615163 95.1743C0.0420933 95.1933 0.0266644 95.2159 0.0161093 95.2408C0.00555416 95.2657 8.11499e-05 95.2924 9.41433e-07 95.3194V95.3206Z" fill="#CCCCCC"/>
<path opacity="0.5" d="M27.2043 67.0918C27.946 66.944 28.7055 66.9033 29.459 66.9712C29.5288 66.9707 29.5956 66.9432 29.6449 66.8946C29.6942 66.846 29.7222 66.7802 29.7227 66.7114C29.7213 66.643 29.6931 66.5777 29.6439 66.5293C29.5948 66.4808 29.5285 66.453 29.459 66.4516C28.6581 66.3832 27.8514 66.4301 27.0642 66.5908C26.9968 66.6092 26.9396 66.6531 26.9051 66.713C26.8706 66.773 26.8617 66.8439 26.8803 66.9103C26.8989 66.9767 26.9434 67.0331 27.0042 67.0672C27.065 67.1012 27.1369 67.1101 27.2043 67.0918Z" fill="#CCCCCC"/>
<path d="M9.10421 62.5723C7.65432 60.672 6.81631 58.5469 6.78885 56.1241C6.74214 55.9935 6.74989 55.8501 6.81041 55.7251C6.87092 55.6002 6.97926 55.504 7.11165 55.4577L12.0537 53.7346C12.1862 53.6885 12.3318 53.6962 12.4586 53.7558C12.5854 53.8155 12.683 53.9222 12.73 54.0527L15.0453 60.5009C15.0921 60.6315 15.0843 60.775 15.0238 60.8999C14.9633 61.0248 14.8549 61.121 14.7225 61.1673L9.78054 62.8904C9.64804 62.9365 9.50242 62.9288 9.37563 62.8692C9.24884 62.8096 9.15123 62.7028 9.10421 62.5723Z" fill="#F2F2F2"/>
<path opacity="0.2" d="M10.22 62.4574C10.0875 62.5035 9.94185 62.4958 9.81506 62.4362C9.68827 62.3766 9.59066 62.2698 9.54365 62.1393C8.09374 60.239 7.25573 58.1139 7.22827 55.6911C7.19803 55.6052 7.19135 55.513 7.2089 55.4238L7.11165 55.4577C6.97926 55.504 6.87093 55.6002 6.81041 55.7251C6.74989 55.8501 6.74214 55.9935 6.78884 56.1241C6.81631 58.5469 7.65432 60.672 9.10422 62.5724C9.15123 62.7028 9.24884 62.8096 9.37563 62.8692C9.50242 62.9288 9.64804 62.9365 9.78053 62.8904L14.7225 61.1674C14.8102 61.1365 14.888 61.0833 14.9481 61.0132C15.0082 60.9431 15.0484 60.8586 15.0647 60.7683L10.22 62.4574Z" fill="black"/>
<path d="M12.5353 57.631L9.22683 58.7948C9.17418 58.8133 9.11622 58.8104 9.06571 58.7868C9.01519 58.7632 8.97625 58.7208 8.95746 58.669C8.93867 58.6171 8.94156 58.56 8.96549 58.5102C8.98943 58.4604 9.03246 58.4221 9.08511 58.4035L12.3936 57.2398C12.4462 57.2215 12.504 57.2244 12.5544 57.248C12.6048 57.2716 12.6437 57.314 12.6624 57.3658C12.6812 57.4176 12.6784 57.4746 12.6545 57.5243C12.6307 57.574 12.5878 57.6124 12.5353 57.631Z" fill="white"/>
<path d="M9.56605 57.466L8.83818 57.722C8.81213 57.7313 8.78448 57.7355 8.7568 57.7342C8.72913 57.733 8.70198 57.7264 8.6769 57.7148C8.65182 57.7032 8.62931 57.6868 8.61065 57.6666C8.59199 57.6465 8.57755 57.6229 8.56815 57.5972C8.55876 57.5715 8.5546 57.5442 8.5559 57.517C8.5572 57.4897 8.56394 57.463 8.57574 57.4383C8.58754 57.4136 8.60417 57.3914 8.62466 57.373C8.64516 57.3547 8.66914 57.3405 8.69521 57.3313L8.69646 57.3308L9.42433 57.0748C9.47693 57.0565 9.53475 57.0595 9.58513 57.0831C9.63551 57.1067 9.67433 57.149 9.69308 57.2008C9.71184 57.2526 9.709 57.3096 9.68518 57.3593C9.66137 57.409 9.61853 57.4474 9.56605 57.466Z" fill="white"/>
<path d="M13.1583 59.3509L9.84981 60.5147C9.79721 60.533 9.73938 60.53 9.68901 60.5064C9.63863 60.4828 9.59981 60.4404 9.58105 60.3887C9.5623 60.3369 9.56514 60.2799 9.58895 60.2302C9.61277 60.1805 9.65561 60.1421 9.7081 60.1235L13.0166 58.9597C13.0691 58.9411 13.1271 58.9439 13.1776 58.9673C13.2281 58.9907 13.2672 59.033 13.2861 59.0848C13.305 59.1365 13.3024 59.1936 13.2786 59.2434C13.2549 59.2933 13.2121 59.3318 13.1595 59.3505L13.1583 59.3509Z" fill="white"/>
<path d="M12.8468 58.491L9.53829 59.6547C9.48567 59.6733 9.4277 59.6705 9.37715 59.647C9.32661 59.6235 9.28762 59.5811 9.26876 59.5293C9.24991 59.4774 9.25273 59.4203 9.2766 59.3705C9.30048 59.3207 9.34346 59.2823 9.39609 59.2637L9.39656 59.2635L12.705 58.0998C12.7577 58.0814 12.8155 58.0844 12.8659 58.108C12.9163 58.1316 12.9551 58.174 12.9739 58.2258C12.9927 58.2776 12.9898 58.3346 12.966 58.3843C12.9421 58.434 12.8993 58.4724 12.8468 58.491Z" fill="white"/>
<path d="M9.45106 55.5243C9.93643 55.5243 10.3299 55.1366 10.3299 54.6583C10.3299 54.18 9.93643 53.7923 9.45106 53.7923C8.96568 53.7923 8.5722 54.18 8.5722 54.6583C8.5722 55.1366 8.96568 55.5243 9.45106 55.5243Z" fill="#CCCCCC"/>
<path d="M41.6171 17.2532C41.6312 18.521 42.0407 21.1607 41.7472 22.4025L41.6997 22.2986C41.4557 22.4892 41.1965 22.6601 40.9246 22.8096C40.7285 22.3395 40.4352 21.9147 40.0633 21.5625C40.1123 22.1453 40.0424 22.7319 39.8577 23.2876C38.7591 23.6773 36.8309 22.4493 35.6357 22.4233C33.7127 22.38 31.839 21.9089 30.0022 21.4101C29.3501 21.2334 28.633 21.003 28.3377 20.4696C28.0424 19.9361 28.5709 19.3603 28.5363 18.7583C28.29 14.4705 30.3626 13.7518 32.3347 12.6061C32.7687 12.354 32.9815 11.8111 33.4719 11.5998C34.1522 11.3071 34.9625 11.4474 35.7025 11.5946C35.5187 11.5349 35.3536 11.4297 35.223 11.2889C35.0925 11.1481 35.001 10.9766 34.9572 10.7909C34.9263 10.6089 34.9471 10.422 35.0172 10.2508C35.0873 10.0797 35.204 9.93092 35.3544 9.82098C35.7622 9.51095 36.3704 9.47284 36.8907 9.60448C37.3933 9.75937 37.8687 9.98953 38.3003 10.2869C38.5934 10.4453 38.8553 10.6541 39.0737 10.9035C39.1766 11.0215 39.2405 11.1677 39.2568 11.3224C39.2732 11.4772 39.2412 11.6332 39.1651 11.7695C39.0713 11.8864 38.9519 11.9809 38.8159 12.046C38.6799 12.1111 38.5307 12.145 38.3794 12.1454C38.1464 12.1521 37.9135 12.1282 37.6869 12.0744C38.7257 12.3269 39.6619 12.8851 40.3709 13.6748C41.2515 14.6846 41.6013 15.9853 41.6171 17.2532Z" fill="#2F2E41"/>
<path d="M10.8925 29.4718C11.0713 29.8456 11.391 30.1359 11.7836 30.281C12.1763 30.4261 12.6109 30.4145 12.9949 30.2486C13.0725 30.2137 13.1469 30.1725 13.2176 30.1255L17.7435 33.4022L20.2388 31.7241L13.5464 27.896C13.3258 27.6225 13.0195 27.4286 12.6754 27.3446C12.3312 27.2607 11.9685 27.2913 11.6439 27.4318C11.46 27.5135 11.2942 27.6301 11.156 27.775C11.0178 27.9198 10.9099 28.0901 10.8385 28.276C10.767 28.4619 10.7335 28.6599 10.7397 28.8586C10.7459 29.0573 10.7918 29.2529 10.8747 29.4341C10.8804 29.4468 10.8864 29.4593 10.8925 29.4718Z" fill="#FFB6B6"/>
<path d="M57.5401 26.4981C57.124 26.5492 56.7445 26.7583 56.4825 27.0808C56.2204 27.4034 56.0964 27.8141 56.1369 28.2253C56.1465 28.3088 56.163 28.3914 56.1864 28.4722L51.6182 31.6914L52.4604 34.5503L58.2344 29.4736C58.5668 29.3521 58.849 29.1256 59.0371 28.8294C59.2251 28.5332 59.3084 28.1841 59.2738 27.8363C59.2523 27.6387 59.1914 27.4471 59.0947 27.2727C58.998 27.0982 58.8674 26.9442 58.7103 26.8194C58.5532 26.6947 58.3727 26.6017 58.1791 26.5457C57.9855 26.4897 57.7826 26.4718 57.582 26.4931C57.568 26.4945 57.5541 26.4962 57.5401 26.4981Z" fill="#FFB6B6"/>
<path d="M24.414 92.474L22.9428 92.4617L22.2917 86.7401L24.4629 86.7581L24.414 92.474Z" fill="#FFB6B6"/>
<path d="M19.7019 94.7792C19.7006 94.951 19.7685 95.1164 19.8908 95.2389C20.013 95.3615 20.1796 95.4313 20.354 95.433L23.2788 95.457L23.7909 94.4343L23.9789 95.4622L25.0825 95.4721L24.8039 91.8058L24.4199 91.7806L22.8538 91.6742L22.3485 91.6409L22.3397 92.6782L19.9901 94.2486C19.9021 94.3074 19.8299 94.3865 19.7797 94.4789C19.7295 94.5713 19.7028 94.6744 19.7019 94.7792Z" fill="#2F2E41"/>
<path d="M43.8057 86.0522L42.6047 86.8891L38.6836 82.6207L40.4562 81.3852L43.8057 86.0522Z" fill="#FFB6B6"/>
<path d="M41.3484 90.6357C41.4493 90.776 41.6024 90.871 41.7743 90.9001C41.9462 90.9292 42.1227 90.8899 42.2653 90.7909L44.6532 89.1264L44.4623 88.0016L45.2244 88.7276L46.1259 88.1002L43.7259 85.2852L43.3993 85.4859L42.0653 86.3012L41.6355 86.5651L42.2433 87.412L41.2677 90.0392C41.2312 90.1376 41.2194 90.2433 41.2335 90.3473C41.2476 90.4512 41.287 90.5502 41.3484 90.6357Z" fill="#2F2E41"/>
<path d="M25.5173 46.0851L29.7904 36.3069H39.6329L36.794 46.5117L25.5173 46.0851Z" fill="#FFB6B6"/>
<path d="M16.4823 92.5179C16.4006 92.5216 16.3197 92.5005 16.2506 92.4574C16.1815 92.4143 16.1275 92.3513 16.096 92.2769C16.0644 92.2026 16.0568 92.1205 16.0742 92.0417C16.0916 91.963 16.1332 91.8914 16.1932 91.8367L16.2205 91.7296C16.217 91.721 16.2133 91.7125 16.2097 91.7039C16.1274 91.5123 15.9895 91.349 15.8133 91.2344C15.637 91.1198 15.4304 91.0591 15.2193 91.0599C15.0082 91.0607 14.802 91.1229 14.6267 91.2388C14.4513 91.3546 14.3146 91.519 14.2338 91.7111C13.9106 92.4781 13.4992 93.2464 13.3979 94.0574C13.3532 94.4158 13.3721 94.7792 13.4535 95.1313C12.6944 93.4997 12.3003 91.7264 12.2978 89.9316C12.2976 89.4812 12.323 89.0311 12.3738 88.5835C12.4158 88.2166 12.4741 87.8523 12.5487 87.4905C12.9555 85.5279 13.829 83.6884 15.0974 82.123C15.7113 81.7929 16.2077 81.2854 16.5199 80.6687C16.633 80.447 16.7129 80.2104 16.7571 79.9661C16.6879 79.9751 16.496 78.9358 16.5483 78.8721C16.4518 78.7277 16.279 78.656 16.1736 78.5152C15.6494 77.8149 14.9272 77.9371 14.5502 78.8888C13.7447 79.2894 13.737 79.9537 14.2311 80.5926C14.5456 80.9991 14.5888 81.5491 14.8646 81.9843C14.8363 82.0201 14.8067 82.0548 14.7784 82.0906C14.2595 82.748 13.8073 83.4539 13.4283 84.1982C13.5204 83.3644 13.4104 82.5208 13.1072 81.7371C12.7999 81.0066 12.224 80.3914 11.7168 79.7599C11.5827 79.5903 11.4005 79.4637 11.1933 79.396C10.9861 79.3284 10.7633 79.3228 10.5529 79.38C10.3425 79.4371 10.154 79.5545 10.0113 79.7171C9.86855 79.8798 9.77797 80.0806 9.75099 80.294C9.74995 80.3033 9.74893 80.3126 9.74795 80.3219C9.82329 80.3638 9.89703 80.4082 9.96918 80.4552C10.0598 80.5149 10.1301 80.6002 10.1707 80.6999C10.2113 80.7996 10.2204 80.909 10.1968 81.0139C10.1733 81.1188 10.1181 81.2142 10.0385 81.2876C9.95899 81.3611 9.85878 81.4091 9.75104 81.4255L9.74 81.4272C9.76684 81.6947 9.81428 81.9599 9.88191 82.2203C9.23125 84.6999 10.636 85.603 12.6418 85.6436C12.686 85.6659 12.7292 85.6883 12.7735 85.7096C12.3926 86.7731 12.1537 87.881 12.0628 89.0053C12.0113 89.6686 12.0143 90.3349 12.0719 90.9977L12.0685 90.9742C11.9231 90.2372 11.5241 89.5721 10.9388 89.0914C10.0696 88.3877 8.84141 88.1286 7.9036 87.563C7.80393 87.4999 7.68804 87.4663 7.5696 87.466C7.45116 87.4657 7.3351 87.4988 7.23513 87.5614C7.13515 87.624 7.05542 87.7134 7.00533 87.8192C6.95525 87.9249 6.9369 88.0426 6.95246 88.1583L6.9563 88.183C7.0961 88.2391 7.23222 88.3038 7.36386 88.3765C7.43919 88.4184 7.51293 88.4629 7.58509 88.5099C7.67573 88.5696 7.74597 88.6548 7.78659 88.7545C7.82722 88.8542 7.83633 88.9637 7.81275 89.0685C7.78917 89.1734 7.73399 89.2688 7.65444 89.3423C7.57489 89.4157 7.47468 89.4638 7.36694 89.4802L7.3559 89.4818C7.34796 89.4829 7.34114 89.4841 7.33321 89.4852C7.57207 90.0472 7.90733 90.5645 8.3243 91.0144C8.73114 93.179 10.4785 93.3844 12.3477 92.754H12.3489C12.5539 93.6322 12.8511 94.487 13.2355 95.3047H16.4029C16.4143 95.27 16.4245 95.2342 16.4347 95.1995C16.1415 95.2177 15.8472 95.2004 15.5583 95.1481C15.7933 94.8639 16.0283 94.5775 16.2633 94.2934C16.2685 94.2881 16.2735 94.2825 16.2781 94.2766C16.3973 94.1312 16.5176 93.9868 16.6368 93.8414L16.6369 93.8412C16.6432 93.3955 16.5912 92.9507 16.4823 92.5179Z" fill="#F2F2F2"/>
<path d="M50.7568 92.5179C50.8385 92.5216 50.9194 92.5005 50.9885 92.4574C51.0576 92.4143 51.1116 92.3513 51.1431 92.2769C51.1747 92.2026 51.1823 92.1204 51.1649 92.0417C51.1475 91.9629 51.1059 91.8914 51.0459 91.8367L51.0185 91.7296C51.0221 91.721 51.0258 91.7125 51.0294 91.7039C51.1117 91.5123 51.2496 91.349 51.4258 91.2344C51.602 91.1198 51.8087 91.0591 52.0198 91.0599C52.2309 91.0606 52.4371 91.1229 52.6124 91.2387C52.7878 91.3546 52.9244 91.5189 53.0053 91.7111C53.3285 92.4781 53.7399 93.2464 53.8412 94.0573C53.8858 94.4158 53.867 94.7792 53.7856 95.1313C54.5446 93.4997 54.9388 91.7264 54.9413 89.9316C54.9415 89.4812 54.9161 89.0311 54.8653 88.5835C54.8232 88.2166 54.765 87.8523 54.6904 87.4905C54.2836 85.5279 53.4101 83.6884 52.1417 82.123C51.5278 81.7929 51.0313 81.2854 50.7192 80.6687C50.6061 80.447 50.5262 80.2104 50.4819 79.9661C50.5512 79.9751 50.743 78.9358 50.6908 78.8721C50.7873 78.7277 50.9601 78.656 51.0655 78.5152C51.5897 77.8149 52.3119 77.9371 52.6889 78.8888C53.4943 79.2894 53.5021 79.9537 53.0079 80.5926C52.6935 80.9991 52.6503 81.5491 52.3745 81.9843C52.4028 82.0201 52.4324 82.0548 52.4607 82.0906C52.9796 82.748 53.4318 83.4539 53.8108 84.1982C53.7187 83.3644 53.8287 82.5208 54.1319 81.7371C54.4391 81.0066 55.0151 80.3914 55.5223 79.7599C55.6564 79.5903 55.8386 79.4637 56.0458 79.396C56.2529 79.3284 56.4758 79.3228 56.6862 79.38C56.8966 79.4371 57.0851 79.5545 57.2278 79.7171C57.3705 79.8798 57.4611 80.0806 57.4881 80.294C57.4891 80.3033 57.4901 80.3126 57.4911 80.3219C57.4158 80.3638 57.3421 80.4082 57.2699 80.4552C57.1793 80.5149 57.109 80.6002 57.0684 80.6999C57.0278 80.7996 57.0187 80.909 57.0422 81.0139C57.0658 81.1188 57.121 81.2142 57.2006 81.2876C57.2801 81.3611 57.3803 81.4091 57.488 81.4255L57.4991 81.4272C57.4722 81.6947 57.4248 81.9599 57.3572 82.2203C58.0078 84.6999 56.6031 85.603 54.5973 85.6436C54.553 85.6659 54.5099 85.6883 54.4656 85.7096C54.8465 86.7731 55.0854 87.881 55.1763 89.0053C55.2278 89.6686 55.2247 90.3349 55.1672 90.9977L55.1706 90.9742C55.316 90.2371 55.7149 89.5721 56.3002 89.0914C57.1695 88.3877 58.3977 88.1286 59.3355 87.563C59.4351 87.4999 59.551 87.4663 59.6695 87.466C59.7879 87.4657 59.904 87.4988 60.004 87.5614C60.1039 87.624 60.1837 87.7134 60.2337 87.8192C60.2838 87.9249 60.3022 88.0426 60.2866 88.1583L60.2828 88.183C60.143 88.2391 60.0069 88.3038 59.8752 88.3765C59.7999 88.4184 59.7261 88.4629 59.654 88.5099C59.5633 88.5696 59.4931 88.6548 59.4525 88.7545C59.4118 88.8542 59.4027 88.9637 59.4263 89.0685C59.4499 89.1734 59.5051 89.2688 59.5846 89.3423C59.6642 89.4157 59.7644 89.4638 59.8721 89.4801L59.8832 89.4818C59.8911 89.4829 59.8979 89.4841 59.9059 89.4852C59.667 90.0472 59.3317 90.5645 58.9148 91.0144C58.5079 93.179 56.7605 93.3844 54.8913 92.754H54.8902C54.6851 93.6322 54.388 94.487 54.0036 95.3047H50.8361C50.8248 95.27 50.8146 95.2342 50.8043 95.1995C51.0975 95.2177 51.3919 95.2004 51.6808 95.1481C51.4458 94.8639 51.2108 94.5775 50.9758 94.2934C50.9705 94.288 50.9656 94.2824 50.961 94.2766C50.8418 94.1312 50.7215 93.9868 50.6023 93.8414L50.6022 93.8412C50.5959 93.3954 50.6479 92.9507 50.7568 92.5179Z" fill="#F2F2F2"/>
<path d="M25.5174 45.3508L21.2748 54.072L21.5777 88.8266H25.2114C25.2114 88.8266 25.918 87.8877 25.918 87.2297C25.918 86.5718 24.7162 86.4764 25.5174 85.6688C26.3186 84.8612 26.5857 84.5981 26.5857 83.8086V71.1778L29.4508 58.9337L29.148 72.3872L39.4437 84.4957L41.8422 82.1323C41.8422 82.1323 42.5435 81.8277 41.8422 81.1733C41.1408 80.519 40.7034 81.6747 40.655 79.8468C40.6066 78.0189 41.0072 78.4137 40.6066 78.0189C40.206 77.6242 34.5987 71.0281 34.5987 71.0281C34.5987 71.0281 39.6719 49.7285 37.1348 45.6494L25.5174 45.3508Z" fill="#2F2E41"/>
<path d="M37.4018 46.3073C37.4018 46.3073 26.4521 42.4914 27.2533 40.386C28.0545 38.2807 29.4003 38.6858 27.7927 38.0227C26.1851 37.3596 25.1199 37.228 26.1199 36.307C27.1198 35.3859 28.5886 34.4648 28.5886 33.5437C28.5886 32.6226 29.7904 25.3855 29.7904 25.3855H31.7143L33.6629 22.0959H36.4156L37.8024 25.1224H40.7307L40.8737 29.7278C40.8737 29.7278 41.0629 38.6247 40.1671 38.979C39.2713 39.3334 38.4701 39.3334 39.2713 40.1229C40.0725 40.9124 40.5288 41.3206 40.1671 42.0376C39.8054 42.7545 37.4018 46.3073 37.4018 46.3073Z" fill="#E6E6E6"/>
<path d="M39.0042 26.4382L40.7307 25.1224C40.7307 25.1224 43.6779 25.1224 44.0785 26.7014C44.4791 28.2804 46.8902 32.1418 46.8902 32.1418C46.8902 32.1418 49.2863 30.7805 50.221 30.7805C51.1557 30.7805 51.8234 31.4384 51.8234 30.6489C51.8234 29.8594 51.2893 29.7278 52.0905 29.7278C52.8917 29.7278 55.0282 28.9383 55.0282 28.9383L57.3072 31.184C57.3072 31.184 57.0312 33.2806 56.0964 33.149C55.1617 33.0174 54.6276 32.3595 54.6276 33.149C54.6276 33.9385 55.1617 35.1227 53.9599 35.2543C52.7581 35.3859 44.7461 37.3596 44.7461 37.3596L39.2713 29.4646L39.0042 26.4382Z" fill="#E6E6E6"/>
<path d="M32.0605 26.4382L30.334 25.1224C30.334 25.1224 27.3868 25.1224 26.9862 26.7014C26.5856 28.2804 24.04 32.1418 24.04 32.1418C24.04 32.1418 21.7784 30.7805 20.8437 30.7805C19.909 30.7805 19.2413 31.4384 19.2413 30.6489C19.2413 29.8594 19.7754 29.7278 18.9742 29.7278C18.173 29.7278 16.0365 28.9383 16.0365 28.9383L13.7575 31.184C13.7575 31.184 14.0335 33.2805 14.9682 33.149C15.903 33.0174 16.4371 32.3595 16.4371 33.149C16.4371 33.9385 15.903 35.1227 17.1048 35.2543C18.3066 35.3859 26.3185 37.3596 26.3185 37.3596L31.7934 29.4646L32.0605 26.4382Z" fill="#E6E6E6"/>
<path d="M34.7192 21.3813C37.0727 21.3813 38.9806 19.5013 38.9806 17.1821C38.9806 14.863 37.0727 12.983 34.7192 12.983C32.3657 12.983 30.4578 14.863 30.4578 17.1821C30.4578 19.5013 32.3657 21.3813 34.7192 21.3813Z" fill="#FFB6B6"/>
<path d="M39.369 16.5482C38.8681 17.1458 38.1228 17.1146 37.4602 17.0193C37.251 16.9899 37.0418 16.957 36.8327 16.9189C36.7958 16.8028 36.7536 16.6868 36.7061 16.5742C36.51 16.1041 36.2167 15.6794 35.8448 15.3271C35.884 15.7877 35.8478 16.2514 35.7376 16.7006C35.3492 16.6123 34.9625 16.5136 34.5775 16.4045C34.2369 16.3499 33.9307 16.1685 33.722 15.8977C33.5132 15.6269 33.4181 15.2875 33.4561 14.9495C32.9025 15.3652 32.2995 15.7255 31.6668 15.7324C31.3101 15.7233 30.9658 15.6018 30.6842 15.3858C30.4027 15.1698 30.1988 14.8706 30.1024 14.5321C29.9302 14.0125 29.9565 13.4132 30.0268 12.852C30.1112 12.1852 30.301 11.4525 30.758 11.1841C31.1254 10.9658 31.549 11.1217 31.9269 11.2984C32.7595 11.6921 33.5488 12.1692 34.2822 12.7221L34.291 12.904C34.4809 12.0085 35.1084 11.3174 35.7921 11.2482C36.2526 11.2031 36.7026 11.4127 37.1368 11.624C37.7042 11.8707 38.2319 12.1981 38.7029 12.5957C39.235 13.0727 39.6046 13.7 39.761 14.3918C39.9245 15.1418 39.8014 16.0321 39.369 16.5482Z" fill="#2F2E41"/>
<path d="M35.1507 10.7206C35.1943 10.7242 35.087 10.6999 35.1219 10.7143C35.1048 10.7066 35.0883 10.6976 35.0727 10.6873C35.0701 10.6856 35.0354 10.658 35.0581 10.6772C35.0059 10.6372 34.9667 10.5832 34.945 10.5217C34.8966 10.3723 34.8741 10.2159 34.8784 10.059C34.887 9.85295 34.8514 9.64739 34.7737 9.45584C34.7507 9.40396 34.7156 9.35817 34.6712 9.32218C34.6269 9.28619 34.5745 9.26101 34.5185 9.24868C34.4624 9.23636 34.4042 9.23724 34.3485 9.25126C34.2928 9.26527 34.2413 9.29202 34.1981 9.32934C34.0542 9.46832 34.0429 9.70311 34.0327 9.88986C34.0217 10.0837 34.0426 10.2781 34.0944 10.4654C34.1836 10.7734 34.3618 11.0492 34.6073 11.2592C34.8908 11.5039 35.2468 11.652 35.6224 11.6815C35.6741 11.6804 35.7242 11.6645 35.7668 11.6357C35.8095 11.607 35.8427 11.5667 35.8624 11.5197C35.8822 11.4727 35.8876 11.421 35.8781 11.371C35.8686 11.321 35.8446 11.2748 35.8089 11.238L35.3371 10.7967C35.2876 10.7479 35.2206 10.7206 35.1507 10.7206C35.0807 10.7206 35.0137 10.7479 34.9642 10.7967C34.9148 10.8454 34.887 10.9115 34.887 10.9804C34.887 11.0493 34.9148 11.1154 34.9642 11.1641L35.436 11.6054L35.6224 11.1619C35.5446 11.155 35.4677 11.1395 35.3934 11.1158C35.3127 11.0937 35.2357 11.0604 35.1645 11.017C35.0948 10.9793 35.0295 10.9343 34.9697 10.8828C34.9314 10.8496 34.8949 10.8146 34.8602 10.7778C34.8476 10.7644 34.8353 10.7508 34.8232 10.737C34.8241 10.738 34.7736 10.6755 34.7953 10.7041C34.7407 10.6306 34.6933 10.5522 34.6535 10.47C34.6395 10.4409 34.6279 10.4107 34.6189 10.3797C34.6022 10.3288 34.5886 10.2769 34.578 10.2244C34.5579 10.1141 34.5519 10.0017 34.56 9.88987C34.5623 9.84244 34.5671 9.79517 34.5743 9.74824C34.581 9.72349 34.5859 9.69832 34.5891 9.67292C34.59 9.60984 34.5803 9.7066 34.547 9.7213L34.4139 9.75677C34.3922 9.75503 34.3712 9.7485 34.3524 9.73767C34.3337 9.72685 34.3176 9.712 34.3055 9.69423C34.2999 9.67254 34.3015 9.67638 34.3102 9.70576C34.3202 9.74025 34.3279 9.77532 34.3334 9.81077C34.3435 9.89319 34.3494 9.97605 34.3511 10.0591C34.3527 10.2349 34.3735 10.4101 34.4129 10.5816C34.4498 10.7539 34.541 10.9104 34.6735 11.0286C34.806 11.1469 34.973 11.2209 35.1506 11.2402C35.2204 11.2396 35.2871 11.2121 35.3365 11.1635C35.3858 11.1149 35.4137 11.0491 35.4143 10.9804C35.4129 10.9119 35.3847 10.8466 35.3356 10.7982C35.2864 10.7498 35.2202 10.7219 35.1507 10.7206Z" fill="#2F2E41"/>
<path d="M56.9138 27.5851C55.4639 25.6847 54.6259 23.5596 54.5984 21.1369C54.5517 21.0063 54.5595 20.8628 54.62 20.7379C54.6805 20.6129 54.7888 20.5167 54.9212 20.4704L59.8632 18.7473C59.9957 18.7013 60.1414 18.7089 60.2681 18.7686C60.3949 18.8282 60.4925 18.935 60.5395 19.0654L62.8549 25.5137C62.9016 25.6442 62.8939 25.7877 62.8334 25.9127C62.7728 26.0376 62.6645 26.1338 62.5321 26.1801L57.5901 27.9032C57.4576 27.9492 57.312 27.9416 57.1852 27.8819C57.0584 27.8223 56.9608 27.7156 56.9138 27.5851Z" fill="#6C63FF"/>
<path opacity="0.2" d="M58.0296 27.4702C57.8971 27.5162 57.7515 27.5086 57.6247 27.4489C57.4979 27.3893 57.4003 27.2826 57.3533 27.1521C55.9034 25.2517 55.0654 23.1266 55.0379 20.7039C55.0077 20.618 55.001 20.5258 55.0185 20.4365L54.9213 20.4704C54.7889 20.5168 54.6806 20.6129 54.62 20.7379C54.5595 20.8628 54.5518 21.0063 54.5985 21.1369C54.6259 23.5596 55.464 25.6847 56.9139 27.5851C56.9609 27.7156 57.0585 27.8223 57.1853 27.882C57.312 27.9416 57.4577 27.9492 57.5902 27.9032L62.5322 26.1801C62.6199 26.1492 62.6977 26.096 62.7578 26.0259C62.8179 25.9559 62.8581 25.8714 62.8744 25.781L58.0296 27.4702Z" fill="black"/>
<path d="M60.3449 22.6438L57.0364 23.8075C56.9837 23.826 56.9258 23.8232 56.8753 23.7996C56.8248 23.776 56.7858 23.7336 56.767 23.6817C56.7482 23.6298 56.7511 23.5727 56.7751 23.523C56.799 23.4732 56.842 23.4348 56.8947 23.4163L60.2032 22.2526C60.2292 22.2434 60.2569 22.2394 60.2845 22.2407C60.3122 22.2421 60.3393 22.2488 60.3643 22.2605C60.3893 22.2722 60.4117 22.2886 60.4303 22.3088C60.4489 22.329 60.4632 22.3527 60.4725 22.3784C60.4818 22.404 60.4859 22.4313 60.4845 22.4585C60.4832 22.4858 60.4763 22.5125 60.4645 22.5371C60.4526 22.5618 60.436 22.5839 60.4155 22.6022C60.3949 22.6205 60.3709 22.6346 60.3449 22.6438Z" fill="white"/>
<path d="M57.3756 22.4787L56.6478 22.7348C56.6217 22.744 56.5941 22.748 56.5664 22.7467C56.5388 22.7454 56.5117 22.7387 56.4867 22.727C56.4616 22.7154 56.4392 22.699 56.4206 22.6788C56.402 22.6586 56.3876 22.635 56.3783 22.6093C56.3689 22.5836 56.3648 22.5564 56.3662 22.5291C56.3675 22.5019 56.3743 22.4752 56.3861 22.4505C56.3979 22.4258 56.4146 22.4037 56.4351 22.3854C56.4556 22.3671 56.4795 22.3529 56.5056 22.3437L56.5061 22.3435L57.2339 22.0875C57.2866 22.0691 57.3445 22.072 57.3949 22.0956C57.4454 22.1192 57.4843 22.1615 57.5031 22.2134C57.5219 22.2652 57.519 22.3223 57.4951 22.372C57.4712 22.4218 57.4282 22.4602 57.3756 22.4787Z" fill="white"/>
<path d="M60.9679 24.3637L57.6594 25.5275C57.6068 25.546 57.5488 25.5433 57.4982 25.5197C57.4477 25.4962 57.4087 25.4539 57.3899 25.402C57.371 25.3501 57.3738 25.293 57.3977 25.2432C57.4216 25.1934 57.4646 25.155 57.5172 25.1364L57.5177 25.1362L60.8261 23.9725C60.8788 23.9541 60.9367 23.957 60.9872 23.9806C61.0376 24.0042 61.0765 24.0465 61.0953 24.0984C61.1141 24.1502 61.1112 24.2073 61.0873 24.2571C61.0634 24.3068 61.0204 24.3452 60.9679 24.3637Z" fill="white"/>
<path d="M60.6563 23.5037L57.3479 24.6675C57.3218 24.6767 57.2942 24.6807 57.2665 24.6794C57.2389 24.6781 57.2118 24.6714 57.1867 24.6597C57.1617 24.6481 57.1392 24.6317 57.1206 24.6115C57.102 24.5913 57.0877 24.5677 57.0783 24.542C57.069 24.5163 57.0649 24.4891 57.0662 24.4618C57.0676 24.4346 57.0743 24.4079 57.0862 24.3832C57.098 24.3585 57.1146 24.3364 57.1351 24.3181C57.1556 24.2998 57.1796 24.2856 57.2057 24.2764L57.2061 24.2762L60.5146 23.1125C60.5407 23.1033 60.5683 23.0993 60.596 23.1006C60.6236 23.1019 60.6507 23.1086 60.6757 23.1202C60.7008 23.1319 60.7232 23.1483 60.7418 23.1685C60.7604 23.1887 60.7748 23.2123 60.7841 23.238C60.7935 23.2637 60.7976 23.2909 60.7962 23.3181C60.7949 23.3454 60.7881 23.3721 60.7763 23.3968C60.7645 23.4214 60.7478 23.4436 60.7273 23.4619C60.7068 23.4802 60.6829 23.4944 60.6568 23.5036L60.6563 23.5037Z" fill="white"/>
<path d="M57.2607 20.5371C57.7461 20.5371 58.1395 20.1494 58.1395 19.6711C58.1395 19.1928 57.7461 18.8051 57.2607 18.8051C56.7753 18.8051 56.3818 19.1928 56.3818 19.6711C56.3818 20.1494 56.7753 20.5371 57.2607 20.5371Z" fill="#3F3D56"/>
<path d="M13.8633 5.51125C14.7484 3.29949 16.148 1.48403 18.2291 0.19357C18.3176 0.0860385 18.4457 0.0174873 18.5855 0.00295206C18.7252 -0.0115832 18.865 0.0290859 18.9744 0.116039L23.0499 3.36504C23.159 3.45224 23.2286 3.57853 23.2433 3.7162C23.2581 3.85388 23.2168 3.9917 23.1286 4.09943L18.7628 9.4171C18.6743 9.52464 18.5461 9.59319 18.4064 9.60773C18.2667 9.62226 18.1268 9.58159 18.0175 9.49464L13.942 6.24564C13.8329 6.15844 13.7633 6.03215 13.7485 5.89448C13.7338 5.7568 13.7751 5.61898 13.8633 5.51125Z" fill="#6C63FF"/>
<path opacity="0.2" d="M14.5464 6.3881C14.4372 6.30091 14.3677 6.17462 14.3529 6.03694C14.3382 5.89927 14.3794 5.76145 14.4677 5.65372C15.3528 3.44194 16.7524 1.62649 18.8335 0.336026C18.8919 0.265711 18.9682 0.21186 19.0546 0.179919L18.9744 0.11598C18.865 0.0290284 18.7252 -0.0116435 18.5855 0.00289042C18.4457 0.0174243 18.3176 0.0859772 18.2291 0.193506C16.148 1.48397 14.7484 3.29942 13.8633 5.5112C13.7751 5.61892 13.7338 5.75674 13.7485 5.89442C13.7633 6.0321 13.8329 6.15839 13.942 6.24558L18.0175 9.49458C18.0901 9.55205 18.1768 9.58959 18.2689 9.60339C18.3609 9.61719 18.4551 9.60676 18.5417 9.57317L14.5464 6.3881Z" fill="black"/>
<path d="M19.9318 5.80777L17.1946 3.63801C17.1512 3.60343 17.1235 3.55331 17.1175 3.49862C17.1116 3.44394 17.1279 3.38916 17.1629 3.34631C17.1979 3.30346 17.2487 3.27603 17.3041 3.27004C17.3596 3.26404 17.4152 3.27998 17.4588 3.31434L20.196 5.4841C20.2394 5.51868 20.2671 5.5688 20.2731 5.62348C20.279 5.67816 20.2627 5.73292 20.2277 5.77577C20.1927 5.81862 20.142 5.84605 20.0865 5.85204C20.031 5.85804 19.9754 5.84212 19.9318 5.80777Z" fill="white"/>
<path d="M18.5213 3.22784L17.9191 2.75049C17.8758 2.71589 17.8481 2.66577 17.8422 2.61113C17.8363 2.55648 17.8526 2.50175 17.8875 2.45892C17.9225 2.4161 17.9733 2.38868 18.0287 2.38266C18.0841 2.37664 18.1397 2.39252 18.1833 2.42682L18.7855 2.90417C18.8289 2.93876 18.8565 2.98888 18.8625 3.04354C18.8684 3.0982 18.8521 3.15295 18.8171 3.19578C18.7821 3.23862 18.7314 3.26604 18.6759 3.27205C18.6205 3.27806 18.5649 3.26216 18.5213 3.22784Z" fill="white"/>
<path d="M18.7701 7.23068L16.0329 5.06093C15.9895 5.02635 15.9618 4.97622 15.9559 4.92154C15.9499 4.86685 15.9662 4.81208 16.0012 4.76923C16.0362 4.72637 16.087 4.69894 16.1425 4.69295C16.1979 4.68696 16.2536 4.70289 16.2971 4.73726L19.0344 6.90702C19.0777 6.94161 19.1053 6.99173 19.1113 7.04638C19.1172 7.10102 19.1009 7.15575 19.0659 7.19858C19.0309 7.2414 18.9802 7.26882 18.9248 7.27484C18.8693 7.28086 18.8137 7.26498 18.7701 7.23068Z" fill="white"/>
<path d="M19.351 6.51926L16.6138 4.3495C16.5922 4.33246 16.5742 4.3114 16.5608 4.28751C16.5475 4.26361 16.539 4.23736 16.536 4.21025C16.5298 4.15551 16.5459 4.10058 16.5809 4.05757C16.6158 4.01455 16.6666 3.98697 16.7222 3.98089C16.7777 3.9748 16.8335 3.99072 16.8771 4.02513L16.878 4.02583L19.6152 6.19559C19.6589 6.23 19.6869 6.28009 19.693 6.33484C19.6992 6.38959 19.6831 6.44451 19.6481 6.48753C19.6132 6.53054 19.5624 6.55813 19.5068 6.56421C19.4513 6.57029 19.3955 6.55438 19.3519 6.51997L19.351 6.51926Z" fill="white"/>
<path d="M20.8894 2.52855C21.3748 2.52855 21.7683 2.14082 21.7683 1.66253C21.7683 1.18424 21.3748 0.796509 20.8894 0.796509C20.404 0.796509 20.0106 1.18424 20.0106 1.66253C20.0106 2.14082 20.404 2.52855 20.8894 2.52855Z" fill="#3F3D56"/>
<path d="M3.78227 31.4021C1.63767 28.5912 0.398132 25.4478 0.357512 21.8642C0.288417 21.6711 0.299883 21.4588 0.389396 21.274C0.478909 21.0892 0.639158 20.947 0.834986 20.8785L8.1449 18.3298C8.34089 18.2617 8.55628 18.273 8.74382 18.3612C8.93136 18.4494 9.07574 18.6073 9.14527 18.8003L12.57 28.3381C12.6391 28.5312 12.6277 28.7435 12.5381 28.9283C12.4486 29.1131 12.2884 29.2554 12.0926 29.3239L4.78264 31.8726C4.58665 31.9406 4.37126 31.9293 4.18372 31.8411C3.99618 31.7529 3.85181 31.595 3.78227 31.4021Z" fill="#6C63FF"/>
<path opacity="0.2" d="M5.43262 31.232C5.23664 31.3001 5.02125 31.2888 4.83371 31.2006C4.64617 31.1124 4.50179 30.9545 4.43225 30.7615C2.28766 27.9506 1.04812 24.8073 1.00749 21.2237C0.962763 21.0967 0.952875 20.9602 0.978833 20.8282L0.834985 20.8784C0.639158 20.9469 0.478915 21.0892 0.3894 21.274C0.299886 21.4588 0.288417 21.671 0.357506 21.8642C0.398128 25.4478 1.63766 28.5911 3.78227 31.402C3.8518 31.595 3.99619 31.7529 4.18373 31.8411C4.37127 31.9293 4.58665 31.9406 4.78264 31.8725L12.0926 29.3238C12.2222 29.2781 12.3374 29.1994 12.4262 29.0958C12.5151 28.9921 12.5746 28.8671 12.5987 28.7335L5.43262 31.232Z" fill="black"/>
<path d="M8.8573 24.0931L3.96359 25.8144C3.925 25.8281 3.88405 25.8342 3.84307 25.8323C3.8021 25.8304 3.76191 25.8205 3.72482 25.8032C3.68772 25.786 3.65445 25.7617 3.6269 25.7317C3.59935 25.7018 3.57808 25.6668 3.56429 25.6287C3.5505 25.5906 3.54447 25.5502 3.54654 25.5099C3.54862 25.4695 3.55876 25.4299 3.57638 25.3934C3.594 25.3569 3.61876 25.3242 3.64923 25.2972C3.67971 25.2701 3.7153 25.2492 3.75398 25.2358L8.64768 23.5145C8.68624 23.5009 8.72713 23.495 8.76803 23.497C8.80892 23.499 8.84901 23.5089 8.886 23.5262C8.923 23.5435 8.95618 23.5677 8.98365 23.5977C9.01112 23.6276 9.03235 23.6625 9.04612 23.7005C9.05988 23.7385 9.06591 23.7788 9.06387 23.8191C9.06183 23.8594 9.05176 23.8989 9.03422 23.9354C9.01669 23.9718 8.99204 24.0045 8.96169 24.0316C8.93133 24.0587 8.89586 24.0796 8.8573 24.0931Z" fill="white"/>
<path d="M4.46541 23.8491L3.3888 24.2277C3.31099 24.2549 3.22545 24.2505 3.15093 24.2155C3.0764 24.1806 3.01897 24.118 2.99123 24.0414C2.96348 23.9648 2.96769 23.8805 3.00292 23.807C3.03815 23.7334 3.10154 23.6766 3.17918 23.6491L4.25579 23.2704C4.3336 23.2433 4.41914 23.2477 4.49366 23.2826C4.56819 23.3175 4.62562 23.3802 4.65336 23.4567C4.6811 23.5333 4.6769 23.6176 4.64167 23.6912C4.60644 23.7647 4.54306 23.8215 4.46541 23.8491Z" fill="white"/>
<path d="M9.77879 26.6371L4.88509 28.3584C4.80721 28.3858 4.72149 28.3816 4.64676 28.3467C4.57204 28.3118 4.51445 28.2491 4.48665 28.1724C4.45886 28.0957 4.46313 28.0112 4.49854 27.9375C4.53395 27.8639 4.59759 27.8072 4.67547 27.7798L9.56917 26.0585C9.60773 26.0449 9.64863 26.039 9.68952 26.041C9.73041 26.043 9.7705 26.0529 9.8075 26.0702C9.84449 26.0875 9.87768 26.1118 9.90515 26.1417C9.93262 26.1716 9.95384 26.2065 9.96761 26.2445C9.98137 26.2825 9.9874 26.3228 9.98536 26.3631C9.98332 26.4034 9.97325 26.4429 9.95572 26.4794C9.93818 26.5158 9.91353 26.5485 9.88318 26.5756C9.85282 26.6027 9.81735 26.6236 9.77879 26.6371Z" fill="white"/>
<path d="M9.31804 25.3651L4.42433 27.0864C4.38577 27.1 4.34488 27.1059 4.30399 27.1039C4.2631 27.1019 4.22301 27.092 4.18601 27.0747C4.14901 27.0574 4.11583 27.0331 4.08836 27.0032C4.06089 26.9733 4.03966 26.9384 4.0259 26.9004C4.01214 26.8624 4.0061 26.8221 4.00814 26.7818C4.01018 26.7415 4.02025 26.702 4.03779 26.6655C4.05532 26.6291 4.07997 26.5964 4.11032 26.5693C4.14068 26.5422 4.17616 26.5213 4.21472 26.5077L9.10842 24.7864C9.14698 24.7729 9.18787 24.7669 9.22876 24.7689C9.26966 24.7709 9.30974 24.7809 9.34674 24.7982C9.38374 24.8154 9.41692 24.8397 9.4444 24.8696C9.47187 24.8995 9.49309 24.9345 9.50686 24.9725C9.52062 25.0105 9.52665 25.0508 9.52461 25.0911C9.52257 25.1314 9.5125 25.1709 9.49496 25.2073C9.47743 25.2438 9.45278 25.2765 9.42242 25.3036C9.39207 25.3306 9.3566 25.3516 9.31804 25.3651Z" fill="white"/>
<path d="M4.29531 20.9771C5.01325 20.9771 5.59525 20.4036 5.59525 19.6961C5.59525 18.9887 5.01325 18.4152 4.29531 18.4152C3.57737 18.4152 2.99536 18.9887 2.99536 19.6961C2.99536 20.4036 3.57737 20.9771 4.29531 20.9771Z" fill="#3F3D56"/>
<path d="M52.0206 77.7316C49.6079 77.7195 47.3837 77.0914 45.4094 75.6472C45.2757 75.6049 45.1644 75.512 45.1001 75.3889C45.0357 75.2658 45.0235 75.1226 45.0662 74.9907L46.6637 70.0707C46.7066 69.9389 46.8009 69.8293 46.9258 69.7659C47.0507 69.7025 47.196 69.6905 47.3299 69.7325L53.941 71.8169C54.0748 71.8592 54.1861 71.9521 54.2504 72.0752C54.3148 72.1982 54.3269 72.3414 54.2843 72.4733L52.6868 77.3933C52.6438 77.5252 52.5496 77.6348 52.4247 77.6982C52.2998 77.7616 52.1545 77.7736 52.0206 77.7316Z" fill="#F2F2F2"/>
<path opacity="0.2" d="M52.6027 76.7866C52.5598 76.9184 52.4655 77.028 52.3406 77.0914C52.2157 77.1548 52.0704 77.1668 51.9365 77.1248C49.5238 77.1127 47.2997 76.4846 45.3254 75.0404C45.2377 75.0122 45.1591 74.9617 45.0976 74.8939L45.0662 74.9907C45.0235 75.1226 45.0357 75.2658 45.1001 75.3889C45.1644 75.512 45.2756 75.6049 45.4094 75.6472C47.3837 77.0914 49.6079 77.7195 52.0206 77.7315C52.1544 77.7736 52.2998 77.7616 52.4246 77.6982C52.5495 77.6348 52.6438 77.5251 52.6868 77.3933L54.2843 72.4733C54.3123 72.3858 54.3164 72.2926 54.2961 72.203C54.2759 72.1135 54.2319 72.0308 54.1688 71.9634L52.6027 76.7866Z" fill="black"/>
<path d="M50.1036 72.0501L49.0424 75.3501C49.0341 75.3761 49.0208 75.4003 49.0031 75.4213C48.9853 75.4423 48.9636 75.4596 48.939 75.4723C48.9145 75.485 48.8877 75.4928 48.8601 75.4953C48.8325 75.4977 48.8047 75.4948 48.7782 75.4867C48.7518 75.4785 48.7272 75.4653 48.706 75.4478C48.6847 75.4303 48.6672 75.4089 48.6543 75.3847C48.6415 75.3605 48.6336 75.334 48.6311 75.3068C48.6287 75.2796 48.6317 75.2522 48.64 75.2262L48.6405 75.2246L49.7017 71.9247C49.7188 71.8724 49.7562 71.8289 49.8057 71.8037C49.8553 71.7786 49.9129 71.7738 49.966 71.7903C50.0192 71.8069 50.0635 71.8436 50.0892 71.8923C50.115 71.9409 50.1202 71.9977 50.1036 72.0501Z" fill="white"/>
<path d="M48.1739 74.28L47.9405 75.006C47.9322 75.032 47.9188 75.0562 47.9011 75.0771C47.8834 75.098 47.8616 75.1153 47.8371 75.128C47.8126 75.1407 47.7858 75.1484 47.7582 75.1509C47.7306 75.1533 47.7028 75.1504 47.6764 75.1423C47.65 75.1341 47.6255 75.121 47.6042 75.1035C47.583 75.086 47.5654 75.0646 47.5526 75.0404C47.5397 75.0162 47.5318 74.9898 47.5294 74.9627C47.5269 74.9355 47.5298 74.9081 47.5381 74.8821L47.5386 74.8805L47.7721 74.1545C47.7803 74.1285 47.7937 74.1043 47.8114 74.0833C47.8292 74.0624 47.8509 74.0451 47.8754 74.0324C47.9 74.0198 47.9268 74.012 47.9543 74.0096C47.9819 74.0071 48.0097 74.01 48.0361 74.0182C48.0625 74.0263 48.0871 74.0395 48.1083 74.057C48.1296 74.0744 48.1471 74.0959 48.16 74.12C48.1728 74.1442 48.1807 74.1706 48.1832 74.1978C48.1857 74.2249 48.1827 74.2523 48.1744 74.2784L48.1739 74.28Z" fill="white"/>
<path d="M51.8702 72.6018L50.809 75.9017C50.8007 75.9278 50.7874 75.9519 50.7696 75.9729C50.7519 75.9938 50.7301 76.0111 50.7056 76.0238C50.6811 76.0364 50.6543 76.0442 50.6267 76.0467C50.5992 76.0491 50.5714 76.0462 50.545 76.038C50.5185 76.0299 50.494 76.0167 50.4727 75.9993C50.4515 75.9818 50.4339 75.9604 50.4211 75.9362C50.4083 75.912 50.4004 75.8856 50.3979 75.8584C50.3954 75.8313 50.3984 75.8039 50.4066 75.7779L50.4071 75.7763L51.4684 72.4763C51.4766 72.4502 51.4899 72.426 51.5076 72.405C51.5254 72.384 51.5471 72.3667 51.5717 72.354C51.5962 72.3413 51.623 72.3335 51.6506 72.331C51.6782 72.3285 51.7061 72.3314 51.7325 72.3396C51.759 72.3477 51.7836 72.3609 51.8048 72.3785C51.8261 72.396 51.8437 72.4174 51.8565 72.4417C51.8693 72.4659 51.8772 72.4923 51.8796 72.5195C51.8821 72.5467 51.879 72.5741 51.8707 72.6002L51.8702 72.6018Z" fill="white"/>
<path d="M50.9869 72.326L49.9257 75.6259C49.9174 75.652 49.9041 75.6762 49.8864 75.6972C49.8686 75.7182 49.8469 75.7355 49.8223 75.7482C49.7978 75.7609 49.771 75.7687 49.7434 75.7711C49.7158 75.7736 49.688 75.7707 49.6615 75.7625C49.6351 75.7544 49.6105 75.7412 49.5893 75.7237C49.568 75.7062 49.5505 75.6847 49.5376 75.6605C49.5248 75.6363 49.5169 75.6099 49.5144 75.5827C49.512 75.5555 49.515 75.5281 49.5233 75.502L49.5238 75.5004L50.585 72.2005C50.5933 72.1745 50.6067 72.1503 50.6244 72.1294C50.6421 72.1084 50.6639 72.0911 50.6884 72.0785C50.7129 72.0658 50.7397 72.058 50.7673 72.0556C50.7949 72.0531 50.8226 72.0561 50.8491 72.0642C50.8755 72.0723 50.9 72.0855 50.9213 72.103C50.9425 72.1205 50.9601 72.1419 50.9729 72.1661C50.9858 72.1902 50.9937 72.2166 50.9961 72.2438C50.9986 72.271 50.9957 72.2983 50.9874 72.3244L50.9869 72.326Z" fill="white"/>
<path d="M45.8356 73.5376C46.321 73.5376 46.7145 73.1499 46.7145 72.6716C46.7145 72.1933 46.321 71.8056 45.8356 71.8056C45.3503 71.8056 44.9568 72.1933 44.9568 72.6716C44.9568 73.1499 45.3503 73.5376 45.8356 73.5376Z" fill="#CCCCCC"/>
<path d="M65.1826 38.8577C65.2685 38.5238 64.9432 38.1544 64.4561 38.0328C63.9689 37.9112 63.5044 38.0832 63.4186 38.4172C63.3327 38.7511 63.658 39.1204 64.1451 39.242C64.6322 39.3637 65.0967 39.1916 65.1826 38.8577Z" fill="white"/>
<path d="M59.2339 38.8199C59.3197 38.486 58.9945 38.1167 58.5073 37.995C58.0202 37.8734 57.5557 38.0455 57.4698 38.3794C57.3839 38.7133 57.7092 39.0826 58.1963 39.2043C58.6835 39.3259 59.148 39.1538 59.2339 38.8199Z" fill="#3F3D56"/>
<path d="M66.2989 43.721C66.3847 43.387 66.0595 43.0177 65.5723 42.8961C65.0852 42.7744 64.6207 42.9465 64.5348 43.2805C64.449 43.6144 64.7742 43.9837 65.2613 44.1053C65.7485 44.227 66.213 44.0549 66.2989 43.721Z" fill="#FF6584"/>
<path d="M67.6856 45.5549C67.7209 45.2438 67.5714 44.9721 67.3519 44.9479C67.1323 44.9238 66.9257 45.1563 66.8905 45.4673C66.8552 45.7783 67.0046 46.0501 67.2242 46.0742C67.4437 46.0984 67.6503 45.8659 67.6856 45.5549Z" fill="#E6E6E6"/>
<path d="M68.1747 49.2281C68.21 48.9171 68.0606 48.6453 67.841 48.6211C67.6214 48.597 67.4149 48.8295 67.3796 49.1405C67.3443 49.4515 67.4937 49.7233 67.7133 49.7474C67.9329 49.7716 68.1395 49.5391 68.1747 49.2281Z" fill="#3F3D56"/>
<path d="M62.093 42.2279C62.1283 41.9169 61.9789 41.6451 61.7593 41.621C61.5397 41.5968 61.3331 41.8293 61.2979 42.1403C61.2626 42.4514 61.412 42.7231 61.6316 42.7473C61.8511 42.7714 62.0577 42.5389 62.093 42.2279Z" fill="#E6E6E6"/>
<path d="M65.0867 41.1196C65.122 40.8086 64.9726 40.5369 64.753 40.5127C64.5334 40.4885 64.3268 40.721 64.2916 41.0321C64.2563 41.3431 64.4057 41.6148 64.6253 41.639C64.8449 41.6632 65.0514 41.4306 65.0867 41.1196Z" fill="#FF6584"/>
<path d="M61.3987 38.1255C61.4339 37.8145 61.2845 37.5428 61.065 37.5186C60.8454 37.4944 60.6388 37.727 60.6035 38.038C60.5683 38.349 60.7177 38.6207 60.9372 38.6449C61.1568 38.6691 61.3634 38.4366 61.3987 38.1255Z" fill="#3F3D56"/>
<path d="M9.63912 36.7793C9.725 36.4453 9.39973 36.076 8.9126 35.9544C8.42548 35.8327 7.96097 36.0048 7.8751 36.3387C7.78922 36.6727 8.11449 37.042 8.60162 37.1636C9.08874 37.2853 9.55325 37.1132 9.63912 36.7793Z" fill="white"/>
<path d="M3.69039 36.7414C3.77627 36.4075 3.45099 36.0382 2.96387 35.9165C2.47675 35.7949 2.01224 35.967 1.92637 36.3009C1.84049 36.6348 2.16576 37.0041 2.65289 37.1258C3.14001 37.2474 3.60452 37.0753 3.69039 36.7414Z" fill="#3F3D56"/>
<path d="M10.7554 41.6425C10.8413 41.3086 10.516 40.9393 10.0289 40.8177C9.54175 40.696 9.07725 40.8681 8.99137 41.202C8.90549 41.5359 9.23077 41.9053 9.71789 42.0269C10.205 42.1485 10.6695 41.9765 10.7554 41.6425Z" fill="#FF6584"/>
<path d="M12.1421 43.4764C12.1774 43.1653 12.028 42.8936 11.8084 42.8694C11.5889 42.8453 11.3823 43.0778 11.347 43.3888C11.3117 43.6998 11.4611 43.9716 11.6807 43.9957C11.9003 44.0199 12.1069 43.7874 12.1421 43.4764Z" fill="#E6E6E6"/>
<path d="M12.6313 47.1496C12.6665 46.8386 12.5171 46.5669 12.2976 46.5427C12.078 46.5185 11.8714 46.7511 11.8361 47.0621C11.8009 47.3731 11.9503 47.6448 12.1698 47.669C12.3894 47.6932 12.596 47.4607 12.6313 47.1496Z" fill="#3F3D56"/>
<path d="M6.54954 40.1494C6.5848 39.8384 6.4354 39.5666 6.21583 39.5425C5.99626 39.5183 5.78968 39.7508 5.75441 40.0618C5.71914 40.3729 5.86855 40.6446 6.08812 40.6688C6.30768 40.693 6.51427 40.4604 6.54954 40.1494Z" fill="#E6E6E6"/>
<path d="M9.54325 39.0412C9.57852 38.7302 9.42911 38.4585 9.20954 38.4343C8.98998 38.4101 8.78339 38.6427 8.74812 38.9537C8.71286 39.2647 8.86226 39.5364 9.08183 39.5606C9.3014 39.5848 9.50798 39.3523 9.54325 39.0412Z" fill="#FF6584"/>
<path d="M5.85514 36.0471C5.89041 35.7361 5.741 35.4644 5.52143 35.4402C5.30187 35.416 5.09528 35.6485 5.06001 35.9596C5.02474 36.2706 5.17415 36.5423 5.39372 36.5665C5.61329 36.5907 5.81987 36.3581 5.85514 36.0471Z" fill="#3F3D56"/>
<path d="M47.598 53.3925C46.1481 51.4922 45.3101 49.3671 45.2826 46.9443C45.2359 46.8137 45.2437 46.6702 45.3042 46.5453C45.3647 46.4204 45.473 46.3242 45.6054 46.2779L50.5474 44.5548C50.6799 44.5087 50.8256 44.5164 50.9523 44.576C51.0791 44.6356 51.1767 44.7424 51.2238 44.8729L53.5391 51.3211C53.5858 51.4517 53.5781 51.5952 53.5176 51.7201C53.457 51.845 53.3487 51.9412 53.2163 51.9875L48.2743 53.7106C48.1418 53.7567 47.9962 53.749 47.8694 53.6894C47.7426 53.6298 47.645 53.523 47.598 53.3925Z" fill="#F2F2F2"/>
<path opacity="0.2" d="M48.7137 53.2776C48.5812 53.3236 48.4356 53.316 48.3088 53.2563C48.182 53.1967 48.0844 53.0899 48.0374 52.9595C46.5875 51.0591 45.7495 48.934 45.722 46.5112C45.6918 46.4254 45.6851 46.3331 45.7027 46.2439L45.6054 46.2778C45.473 46.3241 45.3647 46.4203 45.3042 46.5452C45.2437 46.6702 45.2359 46.8137 45.2826 46.9442C45.3101 49.367 46.1481 51.4921 47.598 53.3925C47.645 53.5229 47.7426 53.6297 47.8694 53.6893C47.9962 53.749 48.1418 53.7566 48.2743 53.7106L53.2163 51.9875C53.304 51.9566 53.3818 51.9034 53.4419 51.8333C53.502 51.7632 53.5422 51.6787 53.5585 51.5884L48.7137 53.2776Z" fill="black"/>
<path d="M51.029 48.4512L47.7205 49.6149C47.6679 49.6335 47.6099 49.6306 47.5594 49.607C47.5089 49.5834 47.47 49.541 47.4512 49.4892C47.4324 49.4373 47.4353 49.3802 47.4592 49.3304C47.4831 49.2806 47.5262 49.2422 47.5788 49.2237L50.8873 48.06C50.9134 48.0508 50.941 48.0468 50.9687 48.0482C50.9963 48.0495 51.0234 48.0562 51.0484 48.0679C51.0734 48.0796 51.0959 48.096 51.1144 48.1162C51.133 48.1365 51.1474 48.1601 51.1567 48.1858C51.166 48.2115 51.1701 48.2387 51.1687 48.266C51.1673 48.2932 51.1605 48.3199 51.1486 48.3446C51.1368 48.3692 51.1201 48.3913 51.0996 48.4096C51.0791 48.4279 51.0551 48.4421 51.029 48.4512Z" fill="white"/>
<path d="M48.0598 48.2862L47.3319 48.5422C47.3059 48.5514 47.2782 48.5554 47.2506 48.5541C47.2229 48.5528 47.1958 48.5461 47.1708 48.5345C47.1458 48.5228 47.1233 48.5064 47.1047 48.4862C47.0861 48.466 47.0717 48.4424 47.0624 48.4167C47.0531 48.391 47.049 48.3638 47.0503 48.3366C47.0516 48.3093 47.0584 48.2826 47.0702 48.2579C47.0821 48.2333 47.0987 48.2112 47.1192 48.1928C47.1397 48.1745 47.1637 48.1603 47.1897 48.1511L47.1902 48.151L47.9181 47.895C47.9707 47.8765 48.0286 47.8794 48.0791 47.903C48.1295 47.9266 48.1684 47.969 48.1872 48.0208C48.206 48.0727 48.2031 48.1297 48.1792 48.1795C48.1553 48.2292 48.1124 48.2676 48.0598 48.2862Z" fill="white"/>
<path d="M51.6521 50.1712L48.3436 51.3349C48.3175 51.3441 48.2899 51.3482 48.2622 51.3468C48.2346 51.3455 48.2075 51.3388 48.1824 51.3272C48.1574 51.3155 48.135 51.2991 48.1164 51.2789C48.0978 51.2587 48.0834 51.2351 48.0741 51.2094C48.0647 51.1838 48.0606 51.1565 48.062 51.1293C48.0633 51.102 48.0701 51.0753 48.0819 51.0507C48.0937 51.026 48.1104 51.0039 48.1309 50.9855C48.1514 50.9672 48.1753 50.953 48.2014 50.9438L48.2019 50.9437L51.5103 49.78C51.563 49.7615 51.6209 49.7644 51.6714 49.788C51.7218 49.8116 51.7607 49.854 51.7795 49.9058C51.7983 49.9577 51.7954 50.0147 51.7715 50.0645C51.7476 50.1142 51.7046 50.1526 51.6521 50.1712Z" fill="white"/>
<path d="M51.3405 49.3112L48.0321 50.4749C48.006 50.4841 47.9784 50.4881 47.9507 50.4868C47.9231 50.4855 47.896 50.4788 47.8709 50.4672C47.8459 50.4555 47.8234 50.4391 47.8048 50.4189C47.7862 50.3987 47.7719 50.3751 47.7625 50.3494C47.7532 50.3237 47.7491 50.2965 47.7504 50.2693C47.7518 50.242 47.7586 50.2153 47.7704 50.1906C47.7822 50.166 47.7988 50.1439 47.8193 50.1255C47.8398 50.1072 47.8638 50.093 47.8899 50.0838L47.8903 50.0837L51.1988 48.9199C51.2514 48.9014 51.3094 48.9041 51.3599 48.9277C51.4105 48.9512 51.4495 48.9936 51.4683 49.0454C51.4872 49.0973 51.4844 49.1544 51.4605 49.2042C51.4366 49.254 51.3936 49.2924 51.341 49.311L51.3405 49.3112Z" fill="white"/>
<path d="M47.9448 46.3445C48.4302 46.3445 48.8237 45.9568 48.8237 45.4785C48.8237 45.0002 48.4302 44.6125 47.9448 44.6125C47.4595 44.6125 47.066 45.0002 47.066 45.4785C47.066 45.9568 47.4595 46.3445 47.9448 46.3445Z" fill="#CCCCCC"/>
</g>
<defs>
<clipPath id="clip0_549_1394">
<rect width="68.4925" height="95.5267" fill="white"/>
</clipPath>
</defs>
</svg>
