<svg width="106" height="79" viewBox="0 0 106 79" fill="none" xmlns="http://www.w3.org/2000/svg">
<g clip-path="url(#clip0_549_1219)">
<path d="M39.2892 48.1824L17.3463 52.8076C16.7122 52.9405 16.0513 52.8165 15.5085 52.4627C14.9657 52.1089 14.5855 51.5542 14.4511 50.9204L10.6857 33.0566C10.5528 32.4225 10.6769 31.7616 11.0307 31.2188C11.3845 30.676 11.9391 30.2958 12.5729 30.1614L34.5158 25.5362C35.1499 25.4033 35.8109 25.5274 36.3537 25.8812C36.8964 26.235 37.2767 26.7896 37.4111 27.4234L41.1764 45.2872C41.3093 45.9213 41.1853 46.5823 40.8315 47.125C40.4777 47.6678 39.9231 48.0481 39.2892 48.1824ZM12.6322 30.4427C12.073 30.5613 11.5836 30.8968 11.2714 31.3757C10.9592 31.8546 10.8498 32.4378 10.9671 32.9974L14.7324 50.8611C14.851 51.4204 15.1865 51.9098 15.6654 52.2219C16.1443 52.5341 16.7275 52.6436 17.287 52.5263L39.2299 47.9011C39.7892 47.7826 40.2786 47.447 40.5908 46.9681C40.9029 46.4892 41.0124 45.906 40.8951 45.3465L37.1297 27.4827C37.0112 26.9235 36.6757 26.4341 36.1967 26.1219C35.7178 25.8097 35.1346 25.7003 34.5751 25.8176L12.6322 30.4427Z" fill="#3F3D56"/>
<path d="M33.1525 31.4264L22.0782 33.7607C21.9813 33.7832 21.8794 33.7681 21.7933 33.7183C21.7071 33.6686 21.643 33.5881 21.614 33.4929C21.6007 33.4433 21.5976 33.3915 21.6051 33.3406C21.6125 33.2898 21.6301 33.241 21.657 33.1972C21.6839 33.1535 21.7194 33.1156 21.7614 33.086C21.8034 33.0564 21.851 33.0357 21.9013 33.0251L33.1742 30.649C33.6144 30.897 33.4752 31.3584 33.1523 31.4265L33.1525 31.4264Z" fill="#CCCCCC"/>
<path d="M33.5619 33.369L22.4876 35.7032C22.3907 35.7257 22.2889 35.7106 22.2027 35.6609C22.1165 35.6111 22.0524 35.5306 22.0234 35.4354C22.0101 35.3858 22.0071 35.334 22.0145 35.2831C22.0219 35.2323 22.0396 35.1835 22.0665 35.1397C22.0933 35.096 22.1289 35.0581 22.1708 35.0285C22.2128 34.999 22.2604 34.9782 22.3107 34.9676L33.5836 32.5915C34.0238 32.8395 33.8848 33.3009 33.5619 33.369Z" fill="#CCCCCC"/>
<path d="M20.3267 37.3138L16.947 38.0262C16.8366 38.0494 16.7215 38.0278 16.6271 37.9662C16.5326 37.9046 16.4664 37.8081 16.443 37.6977L15.6023 33.7093C15.5792 33.599 15.6008 33.4839 15.6624 33.3894C15.7239 33.2949 15.8205 33.2288 15.9308 33.2054L19.3106 32.493C19.421 32.4699 19.536 32.4915 19.6305 32.5531C19.7249 32.6146 19.7911 32.7112 19.8145 32.8215L20.6552 36.8099C20.6784 36.9203 20.6568 37.0353 20.5952 37.1298C20.5336 37.2243 20.4371 37.2904 20.3267 37.3138Z" fill="#CCCCCC"/>
<path d="M34.368 37.353L17.4666 40.9155C17.3697 40.938 17.2679 40.9229 17.1817 40.8732C17.0955 40.8234 17.0315 40.7429 17.0024 40.6477C16.9891 40.5981 16.9861 40.5463 16.9935 40.4954C17.0009 40.4446 17.0186 40.3958 17.0455 40.352C17.0724 40.3083 17.1079 40.2704 17.1499 40.2408C17.1919 40.2112 17.2394 40.1905 17.2897 40.1799L34.3899 36.5755C34.8301 36.8236 34.6909 37.2849 34.368 37.353Z" fill="#CCCCCC"/>
<path d="M34.7776 39.2961L17.8762 42.8586C17.7793 42.8811 17.6775 42.866 17.5913 42.8163C17.5051 42.7666 17.441 42.686 17.412 42.5908C17.3987 42.5412 17.3957 42.4894 17.4031 42.4386C17.4105 42.3877 17.4282 42.3389 17.4551 42.2952C17.4819 42.2514 17.5175 42.2135 17.5595 42.184C17.6014 42.1544 17.649 42.1336 17.6993 42.123L34.7995 38.5186C35.2396 38.7667 35.1005 39.2281 34.7776 39.2961Z" fill="#CCCCCC"/>
<path d="M35.1869 41.2379L18.2855 44.8004C18.1886 44.8229 18.0868 44.8077 18.0006 44.758C17.9144 44.7083 17.8503 44.6277 17.8213 44.5326C17.808 44.483 17.805 44.4312 17.8124 44.3803C17.8198 44.3295 17.8375 44.2807 17.8644 44.2369C17.8912 44.1932 17.9268 44.1553 17.9688 44.1257C18.0108 44.0961 18.0583 44.0754 18.1086 44.0648L35.2088 40.4604C35.6489 40.7084 35.5098 41.1698 35.1869 41.2379Z" fill="#CCCCCC"/>
<path d="M35.5964 43.1808L18.695 46.7433C18.5981 46.7658 18.4963 46.7507 18.4101 46.701C18.3239 46.6513 18.2598 46.5707 18.2308 46.4755C18.2175 46.4259 18.2145 46.3741 18.2219 46.3233C18.2293 46.2724 18.247 46.2236 18.2739 46.1799C18.3008 46.1361 18.3363 46.0982 18.3783 46.0687C18.4203 46.0391 18.4678 46.0183 18.5181 46.0077L35.6183 42.4033C36.0585 42.6514 35.9193 43.1128 35.5964 43.1808Z" fill="#CCCCCC"/>
<path d="M36.0058 45.1228L19.1044 48.6853C19.0074 48.7078 18.9056 48.6926 18.8194 48.6429C18.7333 48.5932 18.6692 48.5126 18.6401 48.4175C18.6269 48.3679 18.6238 48.316 18.6312 48.2652C18.6386 48.2144 18.6563 48.1656 18.6832 48.1218C18.7101 48.078 18.7456 48.0402 18.7876 48.0106C18.8296 47.981 18.8772 47.9603 18.9274 47.9497L36.0276 44.3453C36.4678 44.5933 36.3287 45.0547 36.0058 45.1228Z" fill="#CCCCCC"/>
<path d="M38.7017 36.2294C38.6633 36.2991 38.6305 36.3717 38.6035 36.4465L31.6843 38.1635L30.4806 36.9183L28.3639 38.4892L30.2806 40.9008C30.4354 41.0956 30.6493 41.2349 30.89 41.2979C31.1308 41.3608 31.3855 41.3439 31.6159 41.2498L39.1239 38.1818C39.3706 38.3635 39.6669 38.4657 39.9732 38.4749C40.2794 38.4841 40.5813 38.3998 40.8385 38.2332C41.0957 38.0667 41.2961 37.8258 41.4131 37.5426C41.5301 37.2594 41.558 36.9472 41.4933 36.6477C41.4285 36.3482 41.2741 36.0755 41.0506 35.8659C40.8271 35.6563 40.545 35.5197 40.242 35.4743C39.939 35.4289 39.6293 35.4768 39.3541 35.6117C39.079 35.7466 38.8514 35.9621 38.7017 36.2294Z" fill="#FFB8B8"/>
<path d="M15.084 51.509C15.2997 51.4423 15.4982 51.3292 15.6655 51.1776C15.8328 51.026 15.9647 50.8396 16.0522 50.6314C16.1396 50.4232 16.1803 50.1985 16.1714 49.9729C16.1626 49.7473 16.1044 49.5264 16.0009 49.3257L20.7625 36.091L17.4557 35.505L13.815 48.6986C13.4895 48.8947 13.2471 49.2035 13.134 49.5664C13.0209 49.9292 13.0448 50.321 13.2012 50.6674C13.3577 51.0138 13.6357 51.2908 13.9827 51.4459C14.3297 51.601 14.7216 51.6235 15.084 51.509Z" fill="#FFB8B8"/>
<path d="M20.1578 38.4403L16.8929 37.1873C16.8 37.1516 16.7158 37.0964 16.6462 37.0253C16.5766 36.9542 16.5231 36.8689 16.4894 36.7753C16.4558 36.6817 16.4426 36.5819 16.451 36.4827C16.4593 36.3836 16.489 36.2874 16.5378 36.2007L18.2506 33.1639C18.4359 32.6898 18.8015 32.3085 19.2674 32.1035C19.7332 31.8986 20.2614 31.8867 20.736 32.0704C21.2107 32.2542 21.5931 32.6186 21.7995 33.0839C22.0059 33.5491 22.0195 34.0772 21.8372 34.5524L21.0817 37.9446C21.06 38.0417 21.0177 38.133 20.9576 38.2123C20.8974 38.2916 20.8209 38.357 20.7333 38.404C20.6456 38.4511 20.5488 38.4787 20.4495 38.4849C20.3502 38.4912 20.2507 38.476 20.1578 38.4403Z" fill="#6C63FF"/>
<path d="M27.5272 76.3565H29.2894L30.1279 69.5588L27.5269 69.559L27.5272 76.3565Z" fill="#FFB8B8"/>
<path d="M27.0776 75.7812L30.5483 75.7811H30.5484C30.8389 75.7811 31.1265 75.8383 31.3949 75.9494C31.6632 76.0606 31.907 76.2235 32.1124 76.4289C32.3178 76.6342 32.4807 76.8781 32.5919 77.1464C32.703 77.4148 32.7602 77.7024 32.7602 77.9928V78.0647L27.0777 78.0649L27.0776 75.7812Z" fill="#2F2E41"/>
<path d="M17.6084 76.3565H19.3706L20.2091 69.5588L17.6081 69.559L17.6084 76.3565Z" fill="#FFB8B8"/>
<path d="M17.1588 75.7812L20.6295 75.7811H20.6296C20.9201 75.7811 21.2077 75.8383 21.4761 75.9494C21.7444 76.0606 21.9882 76.2235 22.1936 76.4289C22.399 76.6342 22.5619 76.8781 22.6731 77.1464C22.7842 77.4148 22.8414 77.7024 22.8414 77.9928V78.0647L17.1589 78.0649L17.1588 75.7812Z" fill="#2F2E41"/>
<path d="M19.4559 73.6206H17.2257C17.1382 73.6206 17.0515 73.6028 16.9711 73.5684C16.8906 73.5339 16.818 73.4835 16.7576 73.4201C16.6972 73.3568 16.6502 73.2818 16.6196 73.1998C16.589 73.1178 16.5754 73.0304 16.5796 72.943L17.6389 50.1827L17.7057 50.1809L28.4753 49.9001L30.5828 72.6735C30.5909 72.7589 30.5819 72.845 30.5564 72.9269C30.5309 73.0087 30.4894 73.0847 30.4343 73.1504C30.3792 73.2161 30.3115 73.2702 30.2353 73.3095C30.1591 73.3488 30.0759 73.3726 29.9904 73.3795L27.4853 73.5798C27.328 73.5923 27.1715 73.5469 27.0453 73.452C26.919 73.3572 26.8318 73.2195 26.8001 73.0649L23.5958 56.8532C23.5871 56.804 23.561 56.7595 23.5222 56.7279C23.4835 56.6962 23.4347 56.6795 23.3847 56.6808H23.3838C23.3336 56.6797 23.2847 56.6967 23.246 56.7286C23.2073 56.7606 23.1814 56.8054 23.173 56.8549L20.0906 73.0987C20.0614 73.2456 19.9823 73.3779 19.8665 73.4731C19.7508 73.5682 19.6057 73.6204 19.4559 73.6206Z" fill="#2F2E41"/>
<path d="M23.5413 29.8835C25.4912 29.8835 27.0719 28.3027 27.0719 26.3528C27.0719 24.4029 25.4912 22.8221 23.5413 22.8221C21.5913 22.8221 20.0106 24.4029 20.0106 26.3528C20.0106 28.3027 21.5913 29.8835 23.5413 29.8835Z" fill="#FFB8B8"/>
<path d="M22.3574 52.85C20.6746 52.85 18.9462 52.4076 17.5133 51.0998C17.4371 51.0307 17.3782 50.9446 17.3415 50.8484C17.3048 50.7523 17.2913 50.6488 17.3021 50.5464C17.4554 49.1685 18.1994 42.0535 17.7804 37.3008C17.6987 36.413 17.8243 35.5184 18.1475 34.6876C18.4707 33.8567 18.9826 33.1124 19.6428 32.5132C20.2914 31.9155 21.07 31.4766 21.9173 31.2313C22.7645 30.9859 23.6572 30.9409 24.5249 31.0996C24.5688 31.1074 24.6128 31.1157 24.6568 31.1242C27.4835 31.6712 29.4474 34.2872 29.2252 37.2093C28.9009 41.4729 28.6102 47.24 29.0667 50.5015C29.0856 50.635 29.0623 50.771 29 50.8905C28.9378 51.01 28.8397 51.1071 28.7195 51.1681C27.681 51.6928 25.0789 52.85 22.3574 52.85Z" fill="#6C63FF"/>
<path d="M26.9645 38.6944C26.8817 38.6393 26.8117 38.5669 26.7593 38.4823C26.707 38.3977 26.6736 38.3027 26.6613 38.204L26.2311 34.7554C26.0946 34.265 26.1581 33.7405 26.4077 33.2968C26.6573 32.8531 27.0726 32.5265 27.5627 32.3886C28.0527 32.2507 28.5775 32.3127 29.0219 32.5611C29.4662 32.8094 29.794 33.2239 29.9333 33.7135L31.3501 36.8992C31.3906 36.9901 31.4109 37.0887 31.4098 37.1882C31.4087 37.2877 31.3862 37.3858 31.3438 37.4758C31.3013 37.5658 31.24 37.6456 31.164 37.7097C31.0879 37.7739 30.9989 37.8209 30.9031 37.8476L27.534 38.7852C27.4381 38.8119 27.3376 38.8176 27.2393 38.8019C27.141 38.7863 27.0473 38.7496 26.9645 38.6944Z" fill="#6C63FF"/>
<path d="M22.3087 29.8336C21.9745 29.8398 21.6424 29.7797 21.3316 29.6568C21.1949 29.6041 21.0529 29.5608 20.9164 29.508C19.7108 29.0423 18.9166 27.7583 18.8882 26.4662C18.8598 25.1741 19.5289 23.92 20.5225 23.0935C21.5161 22.267 22.8031 21.8427 24.0918 21.7445C25.48 21.6389 27.043 21.9909 27.8187 23.1469C28.0252 23.4546 28.1696 23.828 28.0473 24.1995C28.0106 24.3116 27.9452 24.4122 27.8575 24.4911C27.5111 24.7993 27.1657 24.5675 26.8126 24.547C26.3272 24.5189 25.8912 24.9118 25.7346 25.372C25.5779 25.8323 25.6468 26.339 25.7733 26.8084C25.8697 27.0909 25.9305 27.3843 25.9542 27.6818C25.9644 27.831 25.9364 27.9804 25.8727 28.1157C25.809 28.251 25.7119 28.3678 25.5904 28.455C25.2871 28.6383 24.8888 28.5322 24.5853 28.3492C24.2818 28.1662 24.0196 27.9117 23.6918 27.777C23.364 27.6423 22.9236 27.6721 22.7328 27.9708C22.6721 28.0795 22.6311 28.198 22.6115 28.3209C22.4405 29.1002 22.4798 29.0543 22.3087 29.8336Z" fill="#2F2E41"/>
<path d="M71.2124 25.0125H48.7874C48.1395 25.0118 47.5183 24.7541 47.0602 24.2959C46.6021 23.8378 46.3444 23.2167 46.3436 22.5688V4.31247C46.3444 3.66457 46.6021 3.04341 47.0602 2.58528C47.5183 2.12714 48.1395 1.86944 48.7874 1.86871H71.2124C71.8603 1.86944 72.4815 2.12714 72.9396 2.58528C73.3978 3.04341 73.6555 3.66457 73.6562 4.31247V22.5688C73.6555 23.2167 73.3978 23.8378 72.9396 24.2959C72.4815 24.7541 71.8603 25.0118 71.2124 25.0125ZM48.7874 2.15621C48.2157 2.15686 47.6676 2.38424 47.2634 2.78848C46.8592 3.19272 46.6318 3.74079 46.6311 4.31247V22.5688C46.6318 23.1404 46.8592 23.6885 47.2634 24.0927C47.6676 24.497 48.2157 24.7244 48.7874 24.725H71.2124C71.7841 24.7244 72.3322 24.497 72.7364 24.0927C73.1407 23.6885 73.368 23.1404 73.3687 22.5688V4.31247C73.368 3.74079 73.1407 3.19272 72.7364 2.78848C72.3322 2.38424 71.7841 2.15686 71.2124 2.15621H48.7874Z" fill="#3F3D56"/>
<path d="M68.6635 7.35106H57.3459C57.2464 7.35307 57.1499 7.31725 57.0758 7.25083C57.0018 7.18441 56.9557 7.09235 56.9469 6.99325C56.9441 6.94196 56.9519 6.89064 56.9696 6.84242C56.9873 6.79421 57.0147 6.75012 57.05 6.71283C57.0853 6.67554 57.1279 6.64585 57.1751 6.62555C57.2223 6.60526 57.2731 6.59479 57.3245 6.59479H68.8451C69.2247 6.92829 68.9935 7.35106 68.6635 7.35106Z" fill="#CCCCCC"/>
<path d="M68.6635 9.33629H57.3459C57.2464 9.3383 57.1499 9.30248 57.0758 9.23606C57.0018 9.16964 56.9557 9.07758 56.9469 8.97848C56.9441 8.92719 56.9519 8.87587 56.9696 8.82765C56.9873 8.77944 57.0147 8.73535 57.05 8.69806C57.0853 8.66077 57.1279 8.63108 57.1751 8.61078C57.2223 8.59049 57.2731 8.58002 57.3245 8.58002H68.8451C69.2247 8.91352 68.9935 9.33629 68.6635 9.33629Z" fill="#CCCCCC"/>
<path d="M54.8993 10.4666H51.4453C51.3325 10.4664 51.2244 10.4216 51.1446 10.3418C51.0649 10.2621 51.02 10.154 51.0199 10.0412V5.96515C51.02 5.85238 51.0649 5.74425 51.1446 5.66451C51.2244 5.58476 51.3325 5.53991 51.4453 5.53979H54.8993C55.0121 5.53995 55.1202 5.58481 55.1999 5.66455C55.2796 5.74428 55.3245 5.85239 55.3247 5.96515V10.0412C55.3245 10.154 55.2797 10.2621 55.1999 10.3418C55.1202 10.4216 55.0121 10.4664 54.8993 10.4666Z" fill="#3F3D56"/>
<path d="M68.6306 13.401H51.3578C51.2584 13.403 51.1618 13.3672 51.0878 13.3008C51.0137 13.2343 50.9676 13.1423 50.9588 13.0432C50.9561 12.9919 50.9638 12.9406 50.9815 12.8924C50.9992 12.8441 51.0266 12.8 51.0619 12.7628C51.0973 12.7255 51.1398 12.6958 51.187 12.6755C51.2342 12.6552 51.2851 12.6447 51.3364 12.6447H68.8124C69.1919 12.9782 68.9606 13.401 68.6306 13.401Z" fill="#CCCCCC"/>
<path d="M68.6306 15.3867H51.3578C51.2584 15.3887 51.1618 15.3529 51.0878 15.2865C51.0137 15.2201 50.9676 15.128 50.9588 15.0289C50.9561 14.9776 50.9638 14.9263 50.9815 14.8781C50.9992 14.8299 51.0266 14.7858 51.0619 14.7485C51.0973 14.7112 51.1398 14.6815 51.187 14.6612C51.2342 14.6409 51.2851 14.6304 51.3364 14.6304H68.8124C69.1919 14.9639 68.9606 15.3867 68.6306 15.3867Z" fill="#CCCCCC"/>
<path d="M68.6306 17.3712H51.3578C51.2584 17.3732 51.1618 17.3374 51.0878 17.271C51.0137 17.2046 50.9676 17.1125 50.9588 17.0134C50.9561 16.9621 50.9638 16.9108 50.9815 16.8626C50.9992 16.8144 51.0266 16.7703 51.0619 16.733C51.0973 16.6957 51.1398 16.666 51.187 16.6457C51.2342 16.6254 51.2851 16.6149 51.3364 16.6149H68.8124C69.1919 16.9484 68.9606 17.3712 68.6306 17.3712Z" fill="#CCCCCC"/>
<path d="M68.6306 19.3568H51.3578C51.2584 19.3588 51.1618 19.323 51.0878 19.2566C51.0137 19.1902 50.9676 19.0981 50.9588 18.999C50.9561 18.9477 50.9638 18.8964 50.9815 18.8482C50.9992 18.8 51.0266 18.7559 51.0619 18.7186C51.0973 18.6813 51.1398 18.6516 51.187 18.6313C51.2342 18.611 51.2851 18.6005 51.3364 18.6005H68.8124C69.1919 18.934 68.9606 19.3568 68.6306 19.3568Z" fill="#CCCCCC"/>
<path d="M68.6306 21.3414H51.3578C51.2584 21.3434 51.1618 21.3076 51.0878 21.2412C51.0137 21.1748 50.9676 21.0827 50.9588 20.9836C50.9561 20.9323 50.9638 20.881 50.9815 20.8328C50.9992 20.7846 51.0266 20.7405 51.0619 20.7032C51.0973 20.6659 51.1398 20.6362 51.187 20.6159C51.2342 20.5956 51.2851 20.5851 51.3364 20.5851H68.8124C69.1919 20.9186 68.9606 21.3414 68.6306 21.3414Z" fill="#CCCCCC"/>
<path d="M66.3249 0C66.5155 0.000218005 66.6982 0.0760133 66.8329 0.210758C66.9677 0.345503 67.0435 0.528194 67.0437 0.718751V3.01876C67.0435 3.20931 66.9677 3.392 66.8329 3.52675C66.6982 3.66149 66.5155 3.73729 66.3249 3.73751H53.6749C53.4843 3.73729 53.3016 3.66149 53.1669 3.52675C53.0322 3.392 52.9564 3.20931 52.9561 3.01876V0.718751C52.9564 0.528194 53.0322 0.345503 53.1669 0.210758C53.3016 0.0760133 53.4843 0.000218005 53.6749 0" fill="#6C63FF"/>
<path d="M103.556 47.5813H81.1312C80.4833 47.5806 79.8621 47.3229 79.404 46.8647C78.9459 46.4066 78.6882 45.7854 78.6874 45.1375V26.8813C78.6882 26.2334 78.9459 25.6122 79.404 25.1541C79.8621 24.6959 80.4833 24.4382 81.1312 24.4375H103.556C104.204 24.4382 104.825 24.6959 105.283 25.1541C105.742 25.6122 105.999 26.2334 106 26.8813V45.1375C105.999 45.7854 105.742 46.4066 105.283 46.8647C104.825 47.3229 104.204 47.5806 103.556 47.5813ZM81.1312 24.725C80.5595 24.7256 80.0114 24.953 79.6072 25.3573C79.203 25.7615 78.9756 26.3096 78.9749 26.8813V45.1375C78.9756 45.7092 79.203 46.2573 79.6072 46.6615C80.0114 47.0658 80.5595 47.2932 81.1312 47.2938H103.556C104.128 47.2932 104.676 47.0658 105.08 46.6615C105.484 46.2573 105.712 45.7092 105.712 45.1375V26.8813C105.712 26.3096 105.484 25.7615 105.08 25.3573C104.676 24.953 104.128 24.7256 103.556 24.725H81.1312Z" fill="#3F3D56"/>
<path d="M101.007 29.9198H89.6897C89.5902 29.9219 89.4937 29.886 89.4196 29.8196C89.3456 29.7532 89.2995 29.6611 89.2907 29.562C89.2879 29.5107 89.2957 29.4594 89.3134 29.4112C89.3311 29.363 89.3585 29.3189 89.3938 29.2816C89.4292 29.2443 89.4717 29.2146 89.5189 29.1943C89.5661 29.174 89.6169 29.1636 89.6683 29.1636H101.189C101.568 29.4971 101.337 29.9198 101.007 29.9198Z" fill="#3F3D56"/>
<path d="M101.007 31.9051H89.6897C89.5902 31.9071 89.4937 31.8713 89.4196 31.8048C89.3456 31.7384 89.2995 31.6464 89.2907 31.5473C89.2879 31.496 89.2957 31.4447 89.3134 31.3964C89.3311 31.3482 89.3585 31.3041 89.3938 31.2668C89.4292 31.2296 89.4717 31.1999 89.5189 31.1796C89.5661 31.1593 89.6169 31.1488 89.6683 31.1488H101.189C101.568 31.4823 101.337 31.9051 101.007 31.9051Z" fill="#3F3D56"/>
<path d="M87.2431 33.0354H83.7891C83.6763 33.0353 83.5682 32.9904 83.4884 32.9107C83.4087 32.8309 83.3638 32.7228 83.3637 32.61V28.534C83.3638 28.4212 83.4087 28.3131 83.4884 28.2334C83.5682 28.1536 83.6763 28.1088 83.7891 28.1086H87.2431C87.3559 28.1088 87.464 28.1537 87.5437 28.2334C87.6234 28.3131 87.6683 28.4212 87.6685 28.534V32.61C87.6683 32.7228 87.6235 32.8309 87.5438 32.9107C87.464 32.9904 87.3559 33.0353 87.2431 33.0354Z" fill="#CCCCCC"/>
<path d="M100.899 44.1042H97.4454C97.3326 44.104 97.2244 44.0592 97.1447 43.9794C97.065 43.8997 97.0201 43.7916 97.02 43.6788V41.3278C97.0201 41.215 97.065 41.1069 97.1447 41.0271C97.2244 40.9474 97.3326 40.9025 97.4454 40.9024H100.899C101.012 40.9026 101.12 40.9474 101.2 41.0272C101.28 41.1069 101.325 41.215 101.325 41.3278V43.6788C101.325 43.7916 101.28 43.8997 101.2 43.9794C101.12 44.0592 101.012 44.104 100.899 44.1042Z" fill="#3F3D56"/>
<path d="M100.974 35.9698H83.7017C83.6022 35.9718 83.5057 35.936 83.4316 35.8695C83.3575 35.8031 83.3115 35.7111 83.3027 35.612C83.2999 35.5607 83.3076 35.5094 83.3254 35.4611C83.3431 35.4129 83.3705 35.3688 83.4058 35.3315C83.4411 35.2943 83.4837 35.2646 83.5309 35.2443C83.5781 35.224 83.6289 35.2135 83.6803 35.2135H101.156C101.536 35.547 101.304 35.9698 100.974 35.9698Z" fill="#CCCCCC"/>
<path d="M100.974 37.9555H83.7017C83.6022 37.9575 83.5057 37.9217 83.4316 37.8553C83.3575 37.7888 83.3115 37.6968 83.3027 37.5977C83.2999 37.5464 83.3076 37.4951 83.3254 37.4469C83.3431 37.3986 83.3705 37.3545 83.4058 37.3173C83.4411 37.28 83.4837 37.2503 83.5309 37.23C83.5781 37.2097 83.6289 37.1992 83.6803 37.1992H101.156C101.536 37.5327 101.304 37.9555 100.974 37.9555Z" fill="#CCCCCC"/>
<path d="M100.974 39.94H83.7017C83.6022 39.942 83.5057 39.9062 83.4316 39.8398C83.3575 39.7733 83.3115 39.6813 83.3027 39.5822C83.2999 39.5309 83.3076 39.4796 83.3254 39.4314C83.3431 39.3831 83.3705 39.339 83.4058 39.3018C83.4411 39.2645 83.4837 39.2348 83.5309 39.2145C83.5781 39.1942 83.6289 39.1837 83.6803 39.1837H101.156C101.536 39.5172 101.304 39.94 100.974 39.94Z" fill="#CCCCCC"/>
<path d="M91.9182 41.9256H83.7017C83.6022 41.9277 83.5057 41.8918 83.4316 41.8254C83.3575 41.759 83.3115 41.6669 83.3027 41.5678C83.2999 41.5165 83.3076 41.4652 83.3254 41.417C83.3431 41.3688 83.3705 41.3247 83.4058 41.2874C83.4411 41.2501 83.4837 41.2204 83.5309 41.2001C83.5781 41.1798 83.6289 41.1694 83.6803 41.1694H92.0999C92.4795 41.5029 92.2482 41.9256 91.9182 41.9256Z" fill="#CCCCCC"/>
<path d="M91.9182 43.9102H83.7017C83.6022 43.9122 83.5057 43.8764 83.4316 43.81C83.3575 43.7436 83.3115 43.6515 83.3027 43.5524C83.2999 43.5011 83.3076 43.4498 83.3254 43.4016C83.3431 43.3534 83.3705 43.3093 83.4058 43.272C83.4411 43.2347 83.4837 43.205 83.5309 43.1847C83.5781 43.1644 83.6289 43.1539 83.6803 43.1539H92.0999C92.4795 43.4874 92.2482 43.9102 91.9182 43.9102Z" fill="#CCCCCC"/>
<path d="M98.6687 26.3063H86.0187C85.8282 26.3061 85.6455 26.2303 85.5107 26.0955C85.376 25.9608 85.3002 25.7781 85.3 25.5875V23.2875C85.3002 23.097 85.376 22.9143 85.5107 22.7795C85.6455 22.6448 85.8282 22.569 86.0187 22.5688H98.6687C98.8593 22.569 99.042 22.6448 99.1767 22.7795C99.3115 22.9143 99.3873 23.097 99.3875 23.2875V25.5875C99.3873 25.7781 99.3115 25.9608 99.1767 26.0955C99.042 26.2303 98.8593 26.3061 98.6687 26.3063Z" fill="#6C63FF"/>
<path d="M54.9126 78.2002H0.14375C0.105625 78.2002 0.0690618 78.185 0.0421034 78.1581C0.015145 78.1311 0 78.0945 0 78.0564C0 78.0183 0.015145 77.9817 0.0421034 77.9548C0.0690618 77.9278 0.105625 77.9127 0.14375 77.9127H54.9126C54.9507 77.9127 54.9873 77.9278 55.0143 77.9548C55.0412 77.9817 55.0564 78.0183 55.0564 78.0564C55.0564 78.0945 55.0412 78.1311 55.0143 78.1581C54.9873 78.185 54.9507 78.2002 54.9126 78.2002Z" fill="#3F3D56"/>
<path d="M13.9098 4.28245C14.4232 4.28245 14.8394 3.86625 14.8394 3.35284C14.8394 2.83942 14.4232 2.42322 13.9098 2.42322C13.3964 2.42322 12.9802 2.83942 12.9802 3.35284C12.9802 3.86625 13.3964 4.28245 13.9098 4.28245Z" fill="#F2F2F2"/>
<path d="M13.9098 7.98741C14.4232 7.98741 14.8394 7.5712 14.8394 7.05779C14.8394 6.54438 14.4232 6.12817 13.9098 6.12817C13.3964 6.12817 12.9802 6.54438 12.9802 7.05779C12.9802 7.5712 13.3964 7.98741 13.9098 7.98741Z" fill="#F2F2F2"/>
<path d="M13.9098 11.6923C14.4232 11.6923 14.8394 11.2761 14.8394 10.7627C14.8394 10.2493 14.4232 9.83307 13.9098 9.83307C13.3964 9.83307 12.9802 10.2493 12.9802 10.7627C12.9802 11.2761 13.3964 11.6923 13.9098 11.6923Z" fill="#F2F2F2"/>
<path d="M13.9098 15.3972C14.4232 15.3972 14.8394 14.981 14.8394 14.4676C14.8394 13.9542 14.4232 13.538 13.9098 13.538C13.3964 13.538 12.9802 13.9542 12.9802 14.4676C12.9802 14.981 13.3964 15.3972 13.9098 15.3972Z" fill="#F2F2F2"/>
<path d="M17.7911 4.28245C18.3045 4.28245 18.7207 3.86625 18.7207 3.35284C18.7207 2.83942 18.3045 2.42322 17.7911 2.42322C17.2777 2.42322 16.8615 2.83942 16.8615 3.35284C16.8615 3.86625 17.2777 4.28245 17.7911 4.28245Z" fill="#F2F2F2"/>
<path d="M17.7911 7.98741C18.3045 7.98741 18.7207 7.5712 18.7207 7.05779C18.7207 6.54438 18.3045 6.12817 17.7911 6.12817C17.2777 6.12817 16.8615 6.54438 16.8615 7.05779C16.8615 7.5712 17.2777 7.98741 17.7911 7.98741Z" fill="#F2F2F2"/>
<path d="M17.7911 11.6923C18.3045 11.6923 18.7207 11.2761 18.7207 10.7627C18.7207 10.2493 18.3045 9.83307 17.7911 9.83307C17.2777 9.83307 16.8615 10.2493 16.8615 10.7627C16.8615 11.2761 17.2777 11.6923 17.7911 11.6923Z" fill="#F2F2F2"/>
<path d="M17.7911 15.3972C18.3045 15.3972 18.7207 14.981 18.7207 14.4676C18.7207 13.9542 18.3045 13.538 17.7911 13.538C17.2777 13.538 16.8615 13.9542 16.8615 14.4676C16.8615 14.981 17.2777 15.3972 17.7911 15.3972Z" fill="#F2F2F2"/>
<path d="M21.6723 4.28245C22.1857 4.28245 22.6019 3.86625 22.6019 3.35284C22.6019 2.83942 22.1857 2.42322 21.6723 2.42322C21.1589 2.42322 20.7427 2.83942 20.7427 3.35284C20.7427 3.86625 21.1589 4.28245 21.6723 4.28245Z" fill="#F2F2F2"/>
<path d="M21.6723 7.98741C22.1857 7.98741 22.6019 7.5712 22.6019 7.05779C22.6019 6.54438 22.1857 6.12817 21.6723 6.12817C21.1589 6.12817 20.7427 6.54438 20.7427 7.05779C20.7427 7.5712 21.1589 7.98741 21.6723 7.98741Z" fill="#F2F2F2"/>
<path d="M21.6723 11.6923C22.1857 11.6923 22.6019 11.2761 22.6019 10.7627C22.6019 10.2493 22.1857 9.83307 21.6723 9.83307C21.1589 9.83307 20.7427 10.2493 20.7427 10.7627C20.7427 11.2761 21.1589 11.6923 21.6723 11.6923Z" fill="#F2F2F2"/>
<path d="M21.6723 15.3972C22.1857 15.3972 22.6019 14.981 22.6019 14.4676C22.6019 13.9542 22.1857 13.538 21.6723 13.538C21.1589 13.538 20.7427 13.9542 20.7427 14.4676C20.7427 14.981 21.1589 15.3972 21.6723 15.3972Z" fill="#F2F2F2"/>
<path d="M25.5536 4.28245C26.067 4.28245 26.4832 3.86625 26.4832 3.35284C26.4832 2.83942 26.067 2.42322 25.5536 2.42322C25.0402 2.42322 24.624 2.83942 24.624 3.35284C24.624 3.86625 25.0402 4.28245 25.5536 4.28245Z" fill="#F2F2F2"/>
<path d="M25.5536 7.98741C26.067 7.98741 26.4832 7.5712 26.4832 7.05779C26.4832 6.54438 26.067 6.12817 25.5536 6.12817C25.0402 6.12817 24.624 6.54438 24.624 7.05779C24.624 7.5712 25.0402 7.98741 25.5536 7.98741Z" fill="#F2F2F2"/>
<path d="M25.5536 11.6923C26.067 11.6923 26.4832 11.2761 26.4832 10.7627C26.4832 10.2493 26.067 9.83307 25.5536 9.83307C25.0402 9.83307 24.624 10.2493 24.624 10.7627C24.624 11.2761 25.0402 11.6923 25.5536 11.6923Z" fill="#F2F2F2"/>
<path d="M25.5536 15.3972C26.067 15.3972 26.4832 14.981 26.4832 14.4676C26.4832 13.9542 26.067 13.538 25.5536 13.538C25.0402 13.538 24.624 13.9542 24.624 14.4676C24.624 14.981 25.0402 15.3972 25.5536 15.3972Z" fill="#F2F2F2"/>
<path d="M29.4349 4.28245C29.9483 4.28245 30.3645 3.86625 30.3645 3.35284C30.3645 2.83942 29.9483 2.42322 29.4349 2.42322C28.9215 2.42322 28.5052 2.83942 28.5052 3.35284C28.5052 3.86625 28.9215 4.28245 29.4349 4.28245Z" fill="#F2F2F2"/>
<path d="M29.4349 7.98741C29.9483 7.98741 30.3645 7.5712 30.3645 7.05779C30.3645 6.54438 29.9483 6.12817 29.4349 6.12817C28.9215 6.12817 28.5052 6.54438 28.5052 7.05779C28.5052 7.5712 28.9215 7.98741 29.4349 7.98741Z" fill="#F2F2F2"/>
<path d="M29.4349 11.6923C29.9483 11.6923 30.3645 11.2761 30.3645 10.7627C30.3645 10.2493 29.9483 9.83307 29.4349 9.83307C28.9215 9.83307 28.5052 10.2493 28.5052 10.7627C28.5052 11.2761 28.9215 11.6923 29.4349 11.6923Z" fill="#F2F2F2"/>
<path d="M29.4349 15.3972C29.9483 15.3972 30.3645 14.981 30.3645 14.4676C30.3645 13.9542 29.9483 13.538 29.4349 13.538C28.9215 13.538 28.5052 13.9542 28.5052 14.4676C28.5052 14.981 28.9215 15.3972 29.4349 15.3972Z" fill="#F2F2F2"/>
<path d="M33.3161 4.28245C33.8295 4.28245 34.2457 3.86625 34.2457 3.35284C34.2457 2.83942 33.8295 2.42322 33.3161 2.42322C32.8027 2.42322 32.3865 2.83942 32.3865 3.35284C32.3865 3.86625 32.8027 4.28245 33.3161 4.28245Z" fill="#F2F2F2"/>
<path d="M33.3161 7.98741C33.8295 7.98741 34.2457 7.5712 34.2457 7.05779C34.2457 6.54438 33.8295 6.12817 33.3161 6.12817C32.8027 6.12817 32.3865 6.54438 32.3865 7.05779C32.3865 7.5712 32.8027 7.98741 33.3161 7.98741Z" fill="#F2F2F2"/>
<path d="M33.3161 11.6923C33.8295 11.6923 34.2457 11.2761 34.2457 10.7627C34.2457 10.2493 33.8295 9.83307 33.3161 9.83307C32.8027 9.83307 32.3865 10.2493 32.3865 10.7627C32.3865 11.2761 32.8027 11.6923 33.3161 11.6923Z" fill="#F2F2F2"/>
<path d="M33.3161 15.3972C33.8295 15.3972 34.2457 14.981 34.2457 14.4676C34.2457 13.9542 33.8295 13.538 33.3161 13.538C32.8027 13.538 32.3865 13.9542 32.3865 14.4676C32.3865 14.981 32.8027 15.3972 33.3161 15.3972Z" fill="#F2F2F2"/>
<path d="M86.5037 55.7451C87.0171 55.7451 87.4333 55.3289 87.4333 54.8155C87.4333 54.3021 87.0171 53.8859 86.5037 53.8859C85.9903 53.8859 85.5741 54.3021 85.5741 54.8155C85.5741 55.3289 85.9903 55.7451 86.5037 55.7451Z" fill="#F2F2F2"/>
<path d="M86.5037 59.45C87.0171 59.45 87.4333 59.0338 87.4333 58.5204C87.4333 58.007 87.0171 57.5908 86.5037 57.5908C85.9903 57.5908 85.5741 58.007 85.5741 58.5204C85.5741 59.0338 85.9903 59.45 86.5037 59.45Z" fill="#F2F2F2"/>
<path d="M86.5037 63.1549C87.0171 63.1549 87.4333 62.7387 87.4333 62.2253C87.4333 61.7119 87.0171 61.2957 86.5037 61.2957C85.9903 61.2957 85.5741 61.7119 85.5741 62.2253C85.5741 62.7387 85.9903 63.1549 86.5037 63.1549Z" fill="#F2F2F2"/>
<path d="M90.385 55.7451C90.8984 55.7451 91.3146 55.3289 91.3146 54.8155C91.3146 54.3021 90.8984 53.8859 90.385 53.8859C89.8716 53.8859 89.4554 54.3021 89.4554 54.8155C89.4554 55.3289 89.8716 55.7451 90.385 55.7451Z" fill="#F2F2F2"/>
<path d="M90.385 59.45C90.8984 59.45 91.3146 59.0338 91.3146 58.5204C91.3146 58.007 90.8984 57.5908 90.385 57.5908C89.8716 57.5908 89.4554 58.007 89.4554 58.5204C89.4554 59.0338 89.8716 59.45 90.385 59.45Z" fill="#F2F2F2"/>
<path d="M90.385 63.1549C90.8984 63.1549 91.3146 62.7387 91.3146 62.2253C91.3146 61.7119 90.8984 61.2957 90.385 61.2957C89.8716 61.2957 89.4554 61.7119 89.4554 62.2253C89.4554 62.7387 89.8716 63.1549 90.385 63.1549Z" fill="#F2F2F2"/>
<path d="M94.2662 55.7451C94.7796 55.7451 95.1958 55.3289 95.1958 54.8155C95.1958 54.3021 94.7796 53.8859 94.2662 53.8859C93.7528 53.8859 93.3366 54.3021 93.3366 54.8155C93.3366 55.3289 93.7528 55.7451 94.2662 55.7451Z" fill="#F2F2F2"/>
<path d="M94.2662 59.45C94.7796 59.45 95.1958 59.0338 95.1958 58.5204C95.1958 58.007 94.7796 57.5908 94.2662 57.5908C93.7528 57.5908 93.3366 58.007 93.3366 58.5204C93.3366 59.0338 93.7528 59.45 94.2662 59.45Z" fill="#F2F2F2"/>
<path d="M94.2662 63.1549C94.7796 63.1549 95.1958 62.7387 95.1958 62.2253C95.1958 61.7119 94.7796 61.2957 94.2662 61.2957C93.7528 61.2957 93.3366 61.7119 93.3366 62.2253C93.3366 62.7387 93.7528 63.1549 94.2662 63.1549Z" fill="#F2F2F2"/>
<path d="M98.1475 55.7451C98.6609 55.7451 99.0771 55.3289 99.0771 54.8155C99.0771 54.3021 98.6609 53.8859 98.1475 53.8859C97.6341 53.8859 97.2179 54.3021 97.2179 54.8155C97.2179 55.3289 97.6341 55.7451 98.1475 55.7451Z" fill="#F2F2F2"/>
<path d="M98.1475 59.45C98.6609 59.45 99.0771 59.0338 99.0771 58.5204C99.0771 58.007 98.6609 57.5908 98.1475 57.5908C97.6341 57.5908 97.2179 58.007 97.2179 58.5204C97.2179 59.0338 97.6341 59.45 98.1475 59.45Z" fill="#F2F2F2"/>
<path d="M98.1475 63.1549C98.6609 63.1549 99.0771 62.7387 99.0771 62.2253C99.0771 61.7119 98.6609 61.2957 98.1475 61.2957C97.6341 61.2957 97.2179 61.7119 97.2179 62.2253C97.2179 62.7387 97.6341 63.1549 98.1475 63.1549Z" fill="#F2F2F2"/>
</g>
<defs>
<clipPath id="clip0_549_1219">
<rect width="106" height="78.2002" fill="white"/>
</clipPath>
</defs>
</svg>
