<svg width="37" height="37" viewBox="0 0 37 37" fill="none" xmlns="http://www.w3.org/2000/svg">
<g clip-path="url(#clip0_1110_493)">
<path d="M18.5 0.578125C8.60178 0.578125 0.578125 8.60178 0.578125 18.5C0.578125 28.3982 8.60178 36.4219 18.5 36.4219C28.3982 36.4219 36.4219 28.3982 36.4219 18.5C36.4219 8.60178 28.3982 0.578125 18.5 0.578125ZM17.6805 17.9385C17.4717 18.2868 17.0952 18.5 16.689 18.5H16.6666C16.3602 18.5 16.0661 18.6221 15.8493 18.8389L15.4403 19.2479C15.2148 19.4734 15.2148 19.8398 15.4403 20.0653L15.8493 20.4743C16.0661 20.6911 16.1882 20.9852 16.1882 21.2916V21.9688C16.1882 22.6076 15.6708 23.125 15.032 23.125H14.5904C14.1525 23.125 13.7521 22.8779 13.5563 22.4854L11.9217 19.2169C11.7453 18.8642 11.2749 18.7876 10.9959 19.0666L9.58893 20.4729C9.37213 20.6896 9.07801 20.8118 8.7716 20.8118H4.24994C4.12781 20.0573 4.04688 19.2891 4.04688 18.5C4.04688 10.5305 10.5305 4.04688 18.5 4.04688C20.0544 4.04688 21.5496 4.30053 22.9537 4.75652L19.3289 7.54092C18.9596 7.78734 18.9943 8.34018 19.391 8.53891L20.1737 8.92986C20.5654 9.1257 20.8125 9.52606 20.8125 9.96398V15.6094C20.8125 15.9288 20.5538 16.1875 20.2344 16.1875H20.0132C19.7943 16.1875 19.5941 16.0639 19.4965 15.8681C19.3838 15.6426 19.0658 15.6303 18.9358 15.8464L17.6805 17.9385ZM30.0625 25.9022C30.0625 26.2086 29.9404 26.5027 29.7236 26.7195L29.032 27.4111C28.8152 27.6279 28.5211 27.75 28.2147 27.75H27.1191C26.8127 27.75 26.5186 27.6279 26.3018 27.4111L25.3616 26.4709C25.1254 26.2347 24.8321 26.0637 24.5101 25.9745C24.1882 25.8854 23.8487 25.8811 23.5246 25.9621L21.9875 26.3466C21.8958 26.3697 21.8018 26.3813 21.7071 26.3813H20.9599C20.6535 26.3813 20.3594 26.2592 20.1426 26.0424L19.2819 25.1817C19.1736 25.0731 19.1128 24.926 19.1128 24.7727V24.0355C19.1128 23.7992 19.2566 23.5868 19.4763 23.4986L22.3192 22.3612C22.4623 22.3041 22.5982 22.2296 22.7232 22.1407L24.4366 20.9202C24.5345 20.8504 24.6517 20.8131 24.7719 20.8132H25.6456C25.879 20.8132 26.0901 20.9534 26.1797 21.1695L26.5663 22.0981C26.5882 22.1507 26.6253 22.1957 26.6727 22.2273C26.7202 22.259 26.7759 22.2759 26.8329 22.2759H27.1076C27.2362 22.2759 27.3496 22.1906 27.3851 22.0678L27.6886 21.0221C27.7247 20.8985 27.8374 20.8139 27.9661 20.8139H28.404C28.5637 20.8139 28.6931 20.9433 28.6931 21.103V22.0374C28.6931 22.1906 28.7538 22.338 28.8622 22.4464L29.7229 23.3071C29.9396 23.5239 30.0618 23.818 30.0618 24.1244V25.9022H30.0625Z" fill="#E2E2E2"/>
</g>
<defs>
<clipPath id="clip0_1110_493">
<rect width="37" height="37" fill="white"/>
</clipPath>
</defs>
</svg>
