<svg width="34" height="34" viewBox="0 0 34 34" fill="none" xmlns="http://www.w3.org/2000/svg">
<g clip-path="url(#clip0_1110_497)">
<path d="M34.0004 6.1201L33.9845 6.76822C32.4917 6.81072 31.5939 7.6076 31.0201 8.90916C29.692 11.9798 25.5323 21.6592 22.7698 27.9598H22.0473L17.6964 17.7013C15.9698 21.0801 14.0679 24.6076 12.4264 27.9598C12.4104 27.9757 11.6295 27.9598 11.6295 27.9438C9.13793 22.116 6.52418 16.3307 4.02731 10.487C3.42168 9.06853 1.40293 6.76822 0.0110547 6.78416C0.0110547 6.61947 -0.00488281 6.25291 -0.00488281 6.02979H8.59606V6.76822C7.57606 6.82666 5.79106 7.47479 6.29574 8.5851C7.45918 11.2254 11.7995 21.351 12.9682 23.917C13.7651 22.3392 16.0389 18.1157 16.9686 16.3307C16.2301 14.8273 13.8554 9.21729 13.1011 7.83072C12.5857 6.8851 11.1832 6.8001 10.1367 6.78416V6.04572L17.707 6.06166V6.7576C16.6764 6.78947 15.6829 7.17197 16.1451 8.14416C17.1492 10.2692 17.7707 11.762 18.7004 13.7063C18.9979 13.1326 20.5439 10.0195 21.2557 8.35135C21.7286 7.25697 21.0486 6.83197 19.2051 6.78947C19.2211 6.59822 19.2051 6.24229 19.2211 6.06697C21.5798 6.05104 25.1232 6.05104 25.7607 6.0351V6.7576C24.5654 6.8001 23.3276 7.4376 22.6742 8.44166L19.5292 14.9654C19.8692 15.8207 22.892 22.5517 23.2054 23.2901L29.7079 8.27697C29.2511 7.04979 27.7742 6.78416 27.2004 6.77354V6.0351L33.9898 6.09354L34.0004 6.1201Z" fill="#E2E2E2"/>
</g>
<defs>
<clipPath id="clip0_1110_497">
<rect width="34" height="34" fill="white"/>
</clipPath>
</defs>
</svg>
